<mxfile host="app.diagrams.net" agent="Mozilla/5.0 (Windows NT 10.0; Win64; x64) AppleWebKit/537.36 (KHTML, like Gecko) Chrome/136.0.0.0 Safari/537.36" version="27.0.9">
  <diagram name="Page-1" id="RDTMF3SsoyLsSKH50AcO">
    <mxGraphModel grid="1" page="1" gridSize="10" guides="1" tooltips="1" connect="1" arrows="1" fold="1" pageScale="1" pageWidth="850" pageHeight="1100" math="0" shadow="0">
      <root>
        <mxCell id="0" />
        <mxCell id="1" parent="0" />
        <mxCell id="5n5htKYlwA2j8NTGIH6a-18" value="&lt;font style=&quot;color: rgb(0, 0, 0);&quot;&gt;&lt;font&gt;RoboticArmAssembl&lt;/font&gt;y&lt;/font&gt;" style="html=1;whiteSpace=wrap;fillColor=#60a917;fontColor=#ffffff;strokeColor=#2D7600;fontSize=10;" vertex="1" parent="1">
          <mxGeometry x="240" y="315" width="160" height="30" as="geometry" />
        </mxCell>
        <mxCell id="5n5htKYlwA2j8NTGIH6a-19" value="Class" style="html=1;whiteSpace=wrap;fillColor=#60a917;fontColor=#ffffff;strokeColor=#2D7600;fontSize=10;" vertex="1" parent="1">
          <mxGeometry x="20" y="20" width="80" height="30" as="geometry" />
        </mxCell>
        <mxCell id="evL0q8HehRQx2sm4fGle-14" value="Function" style="rounded=0;whiteSpace=wrap;html=1;fillColor=#f8cecc;strokeColor=#b85450;fontSize=10;" vertex="1" parent="1">
          <mxGeometry x="115" y="20" width="80" height="30" as="geometry" />
        </mxCell>
        <mxCell id="evL0q8HehRQx2sm4fGle-16" value="Variable&amp;nbsp;" style="rounded=0;whiteSpace=wrap;html=1;fillColor=#e1d5e7;strokeColor=#9673a6;fontSize=10;" vertex="1" parent="1">
          <mxGeometry x="215" y="20" width="80" height="30" as="geometry" />
        </mxCell>
        <mxCell id="evL0q8HehRQx2sm4fGle-21" value="&lt;font style=&quot;font-size: 10px;&quot;&gt;Log information&lt;/font&gt;" style="rounded=0;whiteSpace=wrap;html=1;fillColor=#e1d5e7;strokeColor=#9673a6;" vertex="1" parent="1">
          <mxGeometry x="480" y="157.5" width="90" height="30" as="geometry" />
        </mxCell>
        <mxCell id="evL0q8HehRQx2sm4fGle-28" value="&lt;span style=&quot;font-size: 10px;&quot;&gt;arm.set_position&lt;/span&gt;" style="rounded=0;whiteSpace=wrap;html=1;fillColor=#e1d5e7;strokeColor=#9673a6;" vertex="1" parent="1">
          <mxGeometry x="480" y="222.5" width="90" height="30" as="geometry" />
        </mxCell>
        <mxCell id="evL0q8HehRQx2sm4fGle-35" value="&lt;span style=&quot;font-size: 10px;&quot;&gt;params_settings&lt;/span&gt;" style="rounded=0;whiteSpace=wrap;html=1;fillColor=#e1d5e7;strokeColor=#9673a6;" vertex="1" parent="1">
          <mxGeometry x="480" y="302.5" width="90" height="30" as="geometry" />
        </mxCell>
        <mxCell id="evL0q8HehRQx2sm4fGle-46" value="robotic_assembly" style="rounded=0;whiteSpace=wrap;html=1;fillColor=#f8cecc;strokeColor=#b85450;fontSize=10;" vertex="1" parent="1">
          <mxGeometry x="995" y="1568.75" width="90" height="32.5" as="geometry" />
        </mxCell>
        <mxCell id="evL0q8HehRQx2sm4fGle-52" value="_initialize_camera_and_model" style="rounded=0;whiteSpace=wrap;html=1;fillColor=#f8cecc;strokeColor=#b85450;fontSize=10;" vertex="1" parent="1">
          <mxGeometry x="1195" y="1310" width="150" height="30" as="geometry" />
        </mxCell>
        <mxCell id="evL0q8HehRQx2sm4fGle-53" value="" style="endArrow=classic;html=1;rounded=0;entryX=0;entryY=0.5;entryDx=0;entryDy=0;exitX=1;exitY=0.5;exitDx=0;exitDy=0;" edge="1" parent="1" source="evL0q8HehRQx2sm4fGle-46" target="evL0q8HehRQx2sm4fGle-52">
          <mxGeometry width="50" height="50" relative="1" as="geometry">
            <mxPoint x="1055" y="1620" as="sourcePoint" />
            <mxPoint x="1160" y="1620" as="targetPoint" />
            <Array as="points" />
          </mxGeometry>
        </mxCell>
        <mxCell id="evL0q8HehRQx2sm4fGle-57" value="Initializes class, setting up the logger, robotic arm API, parameters, and voice control." style="text;whiteSpace=wrap;fontSize=8;verticalAlign=middle;" vertex="1" parent="1">
          <mxGeometry x="237.5" y="333.75" width="160" height="50" as="geometry" />
        </mxCell>
        <mxCell id="evL0q8HehRQx2sm4fGle-79" value="Starts robot assembly by performing each tasks sequentially" style="text;whiteSpace=wrap;fontSize=8;" vertex="1" parent="1">
          <mxGeometry x="995" y="1595" width="90" height="40" as="geometry" />
        </mxCell>
        <mxCell id="evL0q8HehRQx2sm4fGle-80" value="Set up agent-specific logger" style="text;whiteSpace=wrap;fontSize=8;verticalAlign=middle;" vertex="1" parent="1">
          <mxGeometry x="480" y="177.5" width="90" height="40" as="geometry" />
        </mxCell>
        <mxCell id="evL0q8HehRQx2sm4fGle-81" value="Initializes the object detection model and camera" style="text;whiteSpace=wrap;fontSize=8;verticalAlign=middle;" vertex="1" parent="1">
          <mxGeometry x="1220" y="1327.5" width="110" height="45" as="geometry" />
        </mxCell>
        <mxCell id="evL0q8HehRQx2sm4fGle-82" value="&lt;font style=&quot;font-size: 10px;&quot;&gt;Verbal message&lt;/font&gt;" style="rounded=0;whiteSpace=wrap;html=1;fillColor=#e1d5e7;strokeColor=#9673a6;" vertex="1" parent="1">
          <mxGeometry x="1645" y="1380" width="90" height="30" as="geometry" />
        </mxCell>
        <mxCell id="evL0q8HehRQx2sm4fGle-86" value="Verbal message to the operator about the assembly step via openai tts-1 model" style="text;whiteSpace=wrap;fontSize=8;verticalAlign=middle;" vertex="1" parent="1">
          <mxGeometry x="1645" y="1400" width="110" height="50" as="geometry" />
        </mxCell>
        <mxCell id="evL0q8HehRQx2sm4fGle-88" value="" style="endArrow=classic;html=1;rounded=0;entryX=0;entryY=0.5;entryDx=0;entryDy=0;exitX=1;exitY=0.5;exitDx=0;exitDy=0;" edge="1" parent="1" source="evL0q8HehRQx2sm4fGle-46" target="KtwAlY6Ba2kB0IQo1Yln-1">
          <mxGeometry width="50" height="50" relative="1" as="geometry">
            <mxPoint x="1125" y="1670" as="sourcePoint" />
            <mxPoint x="1220" y="1740" as="targetPoint" />
          </mxGeometry>
        </mxCell>
        <mxCell id="KtwAlY6Ba2kB0IQo1Yln-1" value="_verbal_updates" style="rounded=0;whiteSpace=wrap;html=1;fillColor=#f8cecc;strokeColor=#b85450;fontSize=10;" vertex="1" parent="1">
          <mxGeometry x="1195" y="1380" width="150" height="30" as="geometry" />
        </mxCell>
        <mxCell id="KtwAlY6Ba2kB0IQo1Yln-2" value="creates and starts a new thread that provides verbal updates on assembly stepÂ " style="text;whiteSpace=wrap;fontSize=8;verticalAlign=middle;" vertex="1" parent="1">
          <mxGeometry x="1225" y="1400" width="110" height="50" as="geometry" />
        </mxCell>
        <mxCell id="KtwAlY6Ba2kB0IQo1Yln-4" value="&lt;span style=&quot;font-size: 10px;&quot;&gt;Model and Capture&lt;/span&gt;" style="rounded=0;whiteSpace=wrap;html=1;fillColor=#e1d5e7;strokeColor=#9673a6;" vertex="1" parent="1">
          <mxGeometry x="1385" y="1310" width="90" height="30" as="geometry" />
        </mxCell>
        <mxCell id="KtwAlY6Ba2kB0IQo1Yln-5" value="" style="endArrow=classic;html=1;rounded=0;entryX=0;entryY=0.5;entryDx=0;entryDy=0;exitX=1;exitY=0.5;exitDx=0;exitDy=0;" edge="1" parent="1" source="evL0q8HehRQx2sm4fGle-52" target="KtwAlY6Ba2kB0IQo1Yln-4">
          <mxGeometry width="50" height="50" relative="1" as="geometry">
            <mxPoint x="1385" y="1455" as="sourcePoint" />
            <mxPoint x="1445" y="1450" as="targetPoint" />
            <Array as="points" />
          </mxGeometry>
        </mxCell>
        <mxCell id="KtwAlY6Ba2kB0IQo1Yln-6" value="YOLOv5 Model and robot camera" style="text;whiteSpace=wrap;fontSize=8;verticalAlign=middle;" vertex="1" parent="1">
          <mxGeometry x="1385" y="1327.5" width="90" height="47.5" as="geometry" />
        </mxCell>
        <mxCell id="KtwAlY6Ba2kB0IQo1Yln-7" value="" style="endArrow=classic;html=1;rounded=0;exitX=1;exitY=0.5;exitDx=0;exitDy=0;entryX=0;entryY=0.5;entryDx=0;entryDy=0;" edge="1" parent="1" source="evL0q8HehRQx2sm4fGle-46" target="KtwAlY6Ba2kB0IQo1Yln-8">
          <mxGeometry width="50" height="50" relative="1" as="geometry">
            <mxPoint x="1305" y="1508" as="sourcePoint" />
            <mxPoint x="1195" y="1720" as="targetPoint" />
            <Array as="points" />
          </mxGeometry>
        </mxCell>
        <mxCell id="KtwAlY6Ba2kB0IQo1Yln-8" value="&lt;span style=&quot;font-size: 10px;&quot;&gt;Counts and coordinates of objectives&lt;/span&gt;" style="rounded=0;whiteSpace=wrap;html=1;fillColor=#e1d5e7;strokeColor=#9673a6;" vertex="1" parent="1">
          <mxGeometry x="1195" y="1460" width="150" height="30" as="geometry" />
        </mxCell>
        <mxCell id="KtwAlY6Ba2kB0IQo1Yln-9" value="Initialize name and coordinates of object to nothing" style="text;whiteSpace=wrap;fontSize=8;verticalAlign=middle;" vertex="1" parent="1">
          <mxGeometry x="1215" y="1475" width="120" height="55" as="geometry" />
        </mxCell>
        <mxCell id="KtwAlY6Ba2kB0IQo1Yln-10" value="&lt;span style=&quot;font-size: 10px;&quot;&gt;Frame&lt;/span&gt;" style="rounded=0;whiteSpace=wrap;html=1;fillColor=#e1d5e7;strokeColor=#9673a6;" vertex="1" parent="1">
          <mxGeometry x="1515" y="1310" width="90" height="30" as="geometry" />
        </mxCell>
        <mxCell id="KtwAlY6Ba2kB0IQo1Yln-11" value="" style="endArrow=classic;html=1;rounded=0;entryX=0;entryY=0.5;entryDx=0;entryDy=0;exitX=1;exitY=0.5;exitDx=0;exitDy=0;" edge="1" parent="1" source="KtwAlY6Ba2kB0IQo1Yln-4" target="KtwAlY6Ba2kB0IQo1Yln-10">
          <mxGeometry width="50" height="50" relative="1" as="geometry">
            <mxPoint x="1565" y="1450" as="sourcePoint" />
            <mxPoint x="1625" y="1455" as="targetPoint" />
            <Array as="points" />
          </mxGeometry>
        </mxCell>
        <mxCell id="KtwAlY6Ba2kB0IQo1Yln-12" value="Get a single frame from the camera and storage" style="text;whiteSpace=wrap;fontSize=8;verticalAlign=middle;" vertex="1" parent="1">
          <mxGeometry x="1515" y="1330" width="90" height="40" as="geometry" />
        </mxCell>
        <mxCell id="KtwAlY6Ba2kB0IQo1Yln-13" value="serving as a input or outputâarrow pointing in = input; arrow pointing out = output." style="text;whiteSpace=wrap;fontSize=8;verticalAlign=middle;" vertex="1" parent="1">
          <mxGeometry x="207.5" y="50" width="95" height="40" as="geometry" />
        </mxCell>
        <mxCell id="KtwAlY6Ba2kB0IQo1Yln-15" value="_process_and_display_frame" style="rounded=0;whiteSpace=wrap;html=1;fillColor=#f8cecc;strokeColor=#b85450;fontSize=10;" vertex="1" parent="1">
          <mxGeometry x="1195" y="1570" width="150" height="30" as="geometry" />
        </mxCell>
        <mxCell id="KtwAlY6Ba2kB0IQo1Yln-16" value="" style="endArrow=classic;html=1;rounded=0;exitX=1;exitY=0.5;exitDx=0;exitDy=0;entryX=0;entryY=0.5;entryDx=0;entryDy=0;" edge="1" parent="1" source="evL0q8HehRQx2sm4fGle-46" target="KtwAlY6Ba2kB0IQo1Yln-15">
          <mxGeometry width="50" height="50" relative="1" as="geometry">
            <mxPoint x="1385" y="1680" as="sourcePoint" />
            <mxPoint x="1405" y="1807" as="targetPoint" />
            <Array as="points" />
          </mxGeometry>
        </mxCell>
        <mxCell id="KtwAlY6Ba2kB0IQo1Yln-17" value="" style="endArrow=classic;html=1;rounded=0;entryX=0.75;entryY=0;entryDx=0;entryDy=0;exitX=0.5;exitY=1;exitDx=0;exitDy=0;" edge="1" parent="1" source="KtwAlY6Ba2kB0IQo1Yln-10" target="KtwAlY6Ba2kB0IQo1Yln-15">
          <mxGeometry width="50" height="50" relative="1" as="geometry">
            <mxPoint x="1585" y="1560" as="sourcePoint" />
            <mxPoint x="1435" y="1957" as="targetPoint" />
            <Array as="points" />
          </mxGeometry>
        </mxCell>
        <mxCell id="KtwAlY6Ba2kB0IQo1Yln-18" value="" style="endArrow=classic;html=1;rounded=0;entryX=0.25;entryY=0;entryDx=0;entryDy=0;exitX=0.532;exitY=1.019;exitDx=0;exitDy=0;exitPerimeter=0;" edge="1" parent="1" source="KtwAlY6Ba2kB0IQo1Yln-8" target="KtwAlY6Ba2kB0IQo1Yln-15">
          <mxGeometry width="50" height="50" relative="1" as="geometry">
            <mxPoint x="1770" y="1750" as="sourcePoint" />
            <mxPoint x="1465" y="2007" as="targetPoint" />
            <Array as="points" />
          </mxGeometry>
        </mxCell>
        <mxCell id="KtwAlY6Ba2kB0IQo1Yln-19" value="" style="endArrow=classic;html=1;rounded=0;entryX=0.5;entryY=0;entryDx=0;entryDy=0;exitX=0.5;exitY=1;exitDx=0;exitDy=0;" edge="1" parent="1" source="KtwAlY6Ba2kB0IQo1Yln-4" target="KtwAlY6Ba2kB0IQo1Yln-15">
          <mxGeometry width="50" height="50" relative="1" as="geometry">
            <mxPoint x="1850" y="1710" as="sourcePoint" />
            <mxPoint x="1545" y="1967" as="targetPoint" />
            <Array as="points" />
          </mxGeometry>
        </mxCell>
        <mxCell id="KtwAlY6Ba2kB0IQo1Yln-21" value="Processes a camera frame, performs object detection, and updates and displays object data." style="text;whiteSpace=wrap;fontSize=8;verticalAlign=middle;" vertex="1" parent="1">
          <mxGeometry x="1215" y="1598.75" width="110" height="45" as="geometry" />
        </mxCell>
        <mxCell id="KtwAlY6Ba2kB0IQo1Yln-23" value="&lt;span style=&quot;font-size: 10px;&quot;&gt;Counts and coordinates of objectives&lt;/span&gt;" style="rounded=0;whiteSpace=wrap;html=1;fillColor=#e1d5e7;strokeColor=#9673a6;" vertex="1" parent="1">
          <mxGeometry x="1385" y="1565" width="90" height="40" as="geometry" />
        </mxCell>
        <mxCell id="KtwAlY6Ba2kB0IQo1Yln-24" value="" style="endArrow=classic;html=1;rounded=0;entryX=0;entryY=0.5;entryDx=0;entryDy=0;exitX=1;exitY=0.5;exitDx=0;exitDy=0;" edge="1" parent="1" source="KtwAlY6Ba2kB0IQo1Yln-15" target="KtwAlY6Ba2kB0IQo1Yln-23">
          <mxGeometry width="50" height="50" relative="1" as="geometry">
            <mxPoint x="1485" y="1780" as="sourcePoint" />
            <mxPoint x="1505" y="1860" as="targetPoint" />
            <Array as="points" />
          </mxGeometry>
        </mxCell>
        <mxCell id="KtwAlY6Ba2kB0IQo1Yln-25" value="name and coordinates of each detected object" style="text;whiteSpace=wrap;fontSize=8;verticalAlign=middle;" vertex="1" parent="1">
          <mxGeometry x="1385" y="1591.25" width="90" height="52.5" as="geometry" />
        </mxCell>
        <mxCell id="KtwAlY6Ba2kB0IQo1Yln-27" value="assembly_steps" style="rounded=0;whiteSpace=wrap;html=1;fillColor=#e1d5e7;strokeColor=#9673a6;fontSize=10;" vertex="1" parent="1">
          <mxGeometry x="1195" y="1670" width="150" height="30" as="geometry" />
        </mxCell>
        <mxCell id="KtwAlY6Ba2kB0IQo1Yln-28" value="assembly steps, default order is housing, wedge, spring" style="text;whiteSpace=wrap;fontSize=8;verticalAlign=middle;" vertex="1" parent="1">
          <mxGeometry x="1220" y="1690" width="110" height="40" as="geometry" />
        </mxCell>
        <mxCell id="KtwAlY6Ba2kB0IQo1Yln-29" value="" style="endArrow=classic;html=1;rounded=0;exitX=1;exitY=0.5;exitDx=0;exitDy=0;entryX=0;entryY=0.5;entryDx=0;entryDy=0;" edge="1" parent="1" source="evL0q8HehRQx2sm4fGle-46" target="KtwAlY6Ba2kB0IQo1Yln-27">
          <mxGeometry width="50" height="50" relative="1" as="geometry">
            <mxPoint x="1185" y="1700" as="sourcePoint" />
            <mxPoint x="1225" y="1947" as="targetPoint" />
            <Array as="points" />
          </mxGeometry>
        </mxCell>
        <mxCell id="KtwAlY6Ba2kB0IQo1Yln-30" value="_execute_assembly_steps" style="rounded=0;whiteSpace=wrap;html=1;fillColor=#f8cecc;strokeColor=#b85450;fontSize=10;" vertex="1" parent="1">
          <mxGeometry x="1195" y="1790" width="150" height="30" as="geometry" />
        </mxCell>
        <mxCell id="KtwAlY6Ba2kB0IQo1Yln-31" value="" style="endArrow=classic;html=1;rounded=0;exitX=1;exitY=0.5;exitDx=0;exitDy=0;entryX=0.25;entryY=0;entryDx=0;entryDy=0;" edge="1" parent="1" source="evL0q8HehRQx2sm4fGle-46" target="KtwAlY6Ba2kB0IQo1Yln-30">
          <mxGeometry width="50" height="50" relative="1" as="geometry">
            <mxPoint x="1285" y="1760" as="sourcePoint" />
            <mxPoint x="1325" y="2107" as="targetPoint" />
            <Array as="points" />
          </mxGeometry>
        </mxCell>
        <mxCell id="KtwAlY6Ba2kB0IQo1Yln-32" value="" style="endArrow=classic;html=1;rounded=0;entryX=0.5;entryY=0;entryDx=0;entryDy=0;exitX=0.5;exitY=1;exitDx=0;exitDy=0;" edge="1" parent="1" source="KtwAlY6Ba2kB0IQo1Yln-27" target="KtwAlY6Ba2kB0IQo1Yln-30">
          <mxGeometry width="50" height="50" relative="1" as="geometry">
            <mxPoint x="1517" y="1900" as="sourcePoint" />
            <mxPoint x="1495" y="1980" as="targetPoint" />
            <Array as="points" />
          </mxGeometry>
        </mxCell>
        <mxCell id="KtwAlY6Ba2kB0IQo1Yln-33" value="&lt;span style=&quot;font-size: 10px;&quot;&gt;step_working_on&lt;/span&gt;" style="rounded=0;whiteSpace=wrap;html=1;fillColor=#e1d5e7;strokeColor=#9673a6;" vertex="1" parent="1">
          <mxGeometry x="995" y="1660" width="90" height="30" as="geometry" />
        </mxCell>
        <mxCell id="KtwAlY6Ba2kB0IQo1Yln-38" value="The exact name of the assembly step currently being worked on." style="text;whiteSpace=wrap;fontSize=8;verticalAlign=middle;" vertex="1" parent="1">
          <mxGeometry x="995" y="1680" width="90" height="50" as="geometry" />
        </mxCell>
        <mxCell id="KtwAlY6Ba2kB0IQo1Yln-39" value="" style="endArrow=classic;html=1;rounded=0;exitX=0.5;exitY=1;exitDx=0;exitDy=0;entryX=0;entryY=0.5;entryDx=0;entryDy=0;" edge="1" parent="1" source="KtwAlY6Ba2kB0IQo1Yln-33" target="KtwAlY6Ba2kB0IQo1Yln-30">
          <mxGeometry width="50" height="50" relative="1" as="geometry">
            <mxPoint x="975" y="1800" as="sourcePoint" />
            <mxPoint x="1165" y="1810" as="targetPoint" />
          </mxGeometry>
        </mxCell>
        <mxCell id="KtwAlY6Ba2kB0IQo1Yln-40" value="" style="endArrow=classic;html=1;rounded=0;entryX=0.75;entryY=0;entryDx=0;entryDy=0;exitX=0.5;exitY=1;exitDx=0;exitDy=0;" edge="1" parent="1" source="KtwAlY6Ba2kB0IQo1Yln-23" target="KtwAlY6Ba2kB0IQo1Yln-30">
          <mxGeometry width="50" height="50" relative="1" as="geometry">
            <mxPoint x="1295" y="1720" as="sourcePoint" />
            <mxPoint x="1400" y="1850" as="targetPoint" />
          </mxGeometry>
        </mxCell>
        <mxCell id="KtwAlY6Ba2kB0IQo1Yln-41" value="Executes assembly steps based on detected objects and current working step." style="text;whiteSpace=wrap;fontSize=8;verticalAlign=middle;" vertex="1" parent="1">
          <mxGeometry x="1215" y="1810" width="110" height="50" as="geometry" />
        </mxCell>
        <mxCell id="KtwAlY6Ba2kB0IQo1Yln-42" value="" style="endArrow=classic;html=1;rounded=0;exitX=0.5;exitY=1;exitDx=0;exitDy=0;entryX=0.5;entryY=0;entryDx=0;entryDy=0;" edge="1" parent="1" source="KtwAlY6Ba2kB0IQo1Yln-30" target="KtwAlY6Ba2kB0IQo1Yln-43">
          <mxGeometry width="50" height="50" relative="1" as="geometry">
            <mxPoint x="1385" y="2040" as="sourcePoint" />
            <mxPoint x="1280" y="2180" as="targetPoint" />
            <Array as="points" />
          </mxGeometry>
        </mxCell>
        <mxCell id="KtwAlY6Ba2kB0IQo1Yln-43" value="_perform_specific_assembly_step" style="rounded=0;whiteSpace=wrap;html=1;fillColor=#f8cecc;strokeColor=#b85450;fontSize=10;" vertex="1" parent="1">
          <mxGeometry x="1195" y="1910" width="150" height="30" as="geometry" />
        </mxCell>
        <mxCell id="KtwAlY6Ba2kB0IQo1Yln-44" value="Performs an assembly step for the specified step type." style="text;whiteSpace=wrap;fontSize=8;verticalAlign=middle;" vertex="1" parent="1">
          <mxGeometry x="1215" y="1930" width="110" height="40" as="geometry" />
        </mxCell>
        <mxCell id="KtwAlY6Ba2kB0IQo1Yln-45" value="" style="endArrow=classic;html=1;rounded=0;exitX=1;exitY=0.5;exitDx=0;exitDy=0;entryX=0;entryY=0.5;entryDx=0;entryDy=0;" edge="1" parent="1" source="KtwAlY6Ba2kB0IQo1Yln-30" target="KtwAlY6Ba2kB0IQo1Yln-46">
          <mxGeometry width="50" height="50" relative="1" as="geometry">
            <mxPoint x="1445" y="2010" as="sourcePoint" />
            <mxPoint x="1425" y="2015" as="targetPoint" />
            <Array as="points" />
          </mxGeometry>
        </mxCell>
        <mxCell id="KtwAlY6Ba2kB0IQo1Yln-46" value="&lt;span style=&quot;font-size: 10px;&quot;&gt;step&lt;/span&gt;" style="rounded=0;whiteSpace=wrap;html=1;fillColor=#e1d5e7;strokeColor=#9673a6;" vertex="1" parent="1">
          <mxGeometry x="1385" y="1790" width="90" height="30" as="geometry" />
        </mxCell>
        <mxCell id="KtwAlY6Ba2kB0IQo1Yln-47" value="The type of assembly step to perform (e.g., &quot;housing&quot;, &quot;wedge&quot;, &quot;spring&quot;, &quot;cap&quot;)." style="text;whiteSpace=wrap;fontSize=8;" vertex="1" parent="1">
          <mxGeometry x="1385" y="1815" width="90" height="40" as="geometry" />
        </mxCell>
        <mxCell id="KtwAlY6Ba2kB0IQo1Yln-48" value="" style="endArrow=classic;html=1;rounded=0;exitX=0;exitY=0.5;exitDx=0;exitDy=0;entryX=0.75;entryY=0;entryDx=0;entryDy=0;" edge="1" parent="1" source="KtwAlY6Ba2kB0IQo1Yln-46" target="KtwAlY6Ba2kB0IQo1Yln-43">
          <mxGeometry width="50" height="50" relative="1" as="geometry">
            <mxPoint x="1585" y="1960" as="sourcePoint" />
            <mxPoint x="1675" y="1960" as="targetPoint" />
            <Array as="points" />
          </mxGeometry>
        </mxCell>
        <mxCell id="KtwAlY6Ba2kB0IQo1Yln-49" value="&lt;span style=&quot;font-size: 10px;&quot;&gt;object_coords&lt;/span&gt;" style="rounded=0;whiteSpace=wrap;html=1;fillColor=#e1d5e7;strokeColor=#9673a6;" vertex="1" parent="1">
          <mxGeometry x="1385" y="1910" width="90" height="30" as="geometry" />
        </mxCell>
        <mxCell id="KtwAlY6Ba2kB0IQo1Yln-50" value="" style="endArrow=classic;html=1;rounded=0;exitX=1;exitY=0.5;exitDx=0;exitDy=0;entryX=0.5;entryY=0;entryDx=0;entryDy=0;" edge="1" parent="1" source="KtwAlY6Ba2kB0IQo1Yln-30" target="KtwAlY6Ba2kB0IQo1Yln-49">
          <mxGeometry width="50" height="50" relative="1" as="geometry">
            <mxPoint x="1535" y="1970" as="sourcePoint" />
            <mxPoint x="1625" y="1970" as="targetPoint" />
            <Array as="points" />
          </mxGeometry>
        </mxCell>
        <mxCell id="KtwAlY6Ba2kB0IQo1Yln-51" value="Dictionary with coordinates for each detected object." style="text;whiteSpace=wrap;fontSize=8;verticalAlign=middle;" vertex="1" parent="1">
          <mxGeometry x="1385" y="1930" width="90" height="50" as="geometry" />
        </mxCell>
        <mxCell id="KtwAlY6Ba2kB0IQo1Yln-52" value="" style="endArrow=classic;html=1;rounded=0;exitX=0;exitY=0.5;exitDx=0;exitDy=0;entryX=1;entryY=0.5;entryDx=0;entryDy=0;" edge="1" parent="1" source="KtwAlY6Ba2kB0IQo1Yln-49" target="KtwAlY6Ba2kB0IQo1Yln-43">
          <mxGeometry width="50" height="50" relative="1" as="geometry">
            <mxPoint x="1590" y="2140" as="sourcePoint" />
            <mxPoint x="1410" y="2270" as="targetPoint" />
            <Array as="points" />
          </mxGeometry>
        </mxCell>
        <mxCell id="KtwAlY6Ba2kB0IQo1Yln-54" value="movement" style="rounded=0;whiteSpace=wrap;html=1;fillColor=#f8cecc;strokeColor=#b85450;fontSize=10;" vertex="1" parent="1">
          <mxGeometry x="1195" y="2010" width="150" height="30" as="geometry" />
        </mxCell>
        <mxCell id="KtwAlY6Ba2kB0IQo1Yln-55" value="" style="endArrow=classic;html=1;rounded=0;exitX=0.5;exitY=1;exitDx=0;exitDy=0;entryX=0.5;entryY=0;entryDx=0;entryDy=0;" edge="1" parent="1" source="KtwAlY6Ba2kB0IQo1Yln-43" target="KtwAlY6Ba2kB0IQo1Yln-54">
          <mxGeometry width="50" height="50" relative="1" as="geometry">
            <mxPoint x="1215" y="2090" as="sourcePoint" />
            <mxPoint x="1215" y="2190" as="targetPoint" />
            <Array as="points" />
          </mxGeometry>
        </mxCell>
        <mxCell id="KtwAlY6Ba2kB0IQo1Yln-56" value="Moves the robotic arm to detected objects for gripping and assembly." style="text;whiteSpace=wrap;fontSize=8;verticalAlign=middle;" vertex="1" parent="1">
          <mxGeometry x="1220" y="2030" width="110" height="50" as="geometry" />
        </mxCell>
        <mxCell id="KtwAlY6Ba2kB0IQo1Yln-58" value="Pre-defined robot parameter for assembling each part e.g. &#39;grip_speed&#39;, &#39;angle_speed&#39;" style="text;whiteSpace=wrap;fontSize=8;verticalAlign=middle;" vertex="1" parent="1">
          <mxGeometry x="480" y="322.5" width="100" height="60" as="geometry" />
        </mxCell>
        <mxCell id="KtwAlY6Ba2kB0IQo1Yln-59" value="Pre-defined initial robot positions before assemblyÂ " style="text;whiteSpace=wrap;fontSize=8;verticalAlign=middle;" vertex="1" parent="1">
          <mxGeometry x="480" y="242.5" width="90" height="50" as="geometry" />
        </mxCell>
        <mxCell id="KtwAlY6Ba2kB0IQo1Yln-62" value="&lt;span style=&quot;font-size: 10px;&quot;&gt;sop_handler&lt;/span&gt;" style="rounded=0;whiteSpace=wrap;html=1;fillColor=#e1d5e7;strokeColor=#9673a6;" vertex="1" parent="1">
          <mxGeometry x="480" y="382.5" width="90" height="30" as="geometry" />
        </mxCell>
        <mxCell id="KtwAlY6Ba2kB0IQo1Yln-64" value="Exact and readsÂ Standard operating procedureÂ " style="text;whiteSpace=wrap;fontSize=8;verticalAlign=middle;" vertex="1" parent="1">
          <mxGeometry x="480" y="395" width="100" height="60" as="geometry" />
        </mxCell>
        <mxCell id="KtwAlY6Ba2kB0IQo1Yln-70" value="" style="endArrow=classic;html=1;rounded=0;exitX=1;exitY=0.5;exitDx=0;exitDy=0;entryX=0;entryY=0.5;entryDx=0;entryDy=0;" edge="1" parent="1" source="KtwAlY6Ba2kB0IQo1Yln-1" target="KtwAlY6Ba2kB0IQo1Yln-72">
          <mxGeometry width="50" height="50" relative="1" as="geometry">
            <mxPoint x="1535" y="1540" as="sourcePoint" />
            <mxPoint x="1385" y="1395" as="targetPoint" />
          </mxGeometry>
        </mxCell>
        <mxCell id="KtwAlY6Ba2kB0IQo1Yln-72" value="&lt;font style=&quot;color: rgb(0, 0, 0);&quot;&gt;text_to_speech&lt;/font&gt;" style="html=1;whiteSpace=wrap;fillColor=#f8cecc;strokeColor=#b85450;fontSize=10;" vertex="1" parent="1">
          <mxGeometry x="1385" y="1380" width="90" height="30" as="geometry" />
        </mxCell>
        <mxCell id="KtwAlY6Ba2kB0IQo1Yln-74" value="A class to handle voice control functionalities, including sound detection, recording audio, transcribing speech to text, and playing text-to-speech output." style="text;whiteSpace=wrap;fontSize=8;verticalAlign=middle;" vertex="1" parent="1">
          <mxGeometry x="1385" y="1410" width="120" height="50" as="geometry" />
        </mxCell>
        <mxCell id="KtwAlY6Ba2kB0IQo1Yln-75" value="text_to_speech" style="rounded=0;whiteSpace=wrap;html=1;fillColor=#f8cecc;strokeColor=#b85450;fontSize=10;" vertex="1" parent="1">
          <mxGeometry x="1515" y="1380" width="90" height="30" as="geometry" />
        </mxCell>
        <mxCell id="KtwAlY6Ba2kB0IQo1Yln-76" value="" style="endArrow=classic;html=1;rounded=0;entryX=0;entryY=0.5;entryDx=0;entryDy=0;exitX=1;exitY=0.5;exitDx=0;exitDy=0;" edge="1" parent="1" source="KtwAlY6Ba2kB0IQo1Yln-72" target="KtwAlY6Ba2kB0IQo1Yln-75">
          <mxGeometry width="50" height="50" relative="1" as="geometry">
            <mxPoint x="1685" y="1360" as="sourcePoint" />
            <mxPoint x="1725" y="1360" as="targetPoint" />
            <Array as="points" />
          </mxGeometry>
        </mxCell>
        <mxCell id="KtwAlY6Ba2kB0IQo1Yln-77" value="Converts text to speech and plays it through the system&#39;s audio output." style="text;whiteSpace=wrap;fontSize=8;verticalAlign=middle;" vertex="1" parent="1">
          <mxGeometry x="1515" y="1410" width="90" height="30" as="geometry" />
        </mxCell>
        <mxCell id="KtwAlY6Ba2kB0IQo1Yln-78" value="" style="endArrow=classic;html=1;rounded=0;exitX=1;exitY=0.5;exitDx=0;exitDy=0;entryX=0;entryY=0.5;entryDx=0;entryDy=0;" edge="1" parent="1" source="KtwAlY6Ba2kB0IQo1Yln-75" target="evL0q8HehRQx2sm4fGle-82">
          <mxGeometry width="50" height="50" relative="1" as="geometry">
            <mxPoint x="1645" y="1290" as="sourcePoint" />
            <mxPoint x="1655" y="1395" as="targetPoint" />
            <Array as="points" />
          </mxGeometry>
        </mxCell>
        <mxCell id="LMHyC45OCO51PbOUbwfd-1" value="llm_roboticarm_main.py" style="rounded=0;whiteSpace=wrap;html=1;fillColor=#dae8fc;strokeColor=#6c8ebf;fontSize=10;" vertex="1" parent="1">
          <mxGeometry x="20" y="485" width="120" height="30" as="geometry" />
        </mxCell>
        <mxCell id="LMHyC45OCO51PbOUbwfd-2" value="" style="endArrow=classic;html=1;rounded=0;exitX=1;exitY=0.5;exitDx=0;exitDy=0;fontSize=10;entryX=0;entryY=0.5;entryDx=0;entryDy=0;" edge="1" parent="1" source="LMHyC45OCO51PbOUbwfd-1" target="LMHyC45OCO51PbOUbwfd-3">
          <mxGeometry width="50" height="50" relative="1" as="geometry">
            <mxPoint x="360" y="536" as="sourcePoint" />
            <mxPoint x="240" y="500" as="targetPoint" />
          </mxGeometry>
        </mxCell>
        <mxCell id="LMHyC45OCO51PbOUbwfd-3" value="&lt;font color=&quot;#000000&quot;&gt;voice_control&lt;/font&gt;" style="html=1;whiteSpace=wrap;fillColor=#60a917;fontColor=#ffffff;strokeColor=#2D7600;fontSize=10;" vertex="1" parent="1">
          <mxGeometry x="240" y="207.5" width="160" height="30" as="geometry" />
        </mxCell>
        <mxCell id="LMHyC45OCO51PbOUbwfd-4" value="Initializes VoiceControl class for microphone" style="text;whiteSpace=wrap;fontSize=8;verticalAlign=middle;" vertex="1" parent="1">
          <mxGeometry x="245" y="217.5" width="160" height="50" as="geometry" />
        </mxCell>
        <mxCell id="LMHyC45OCO51PbOUbwfd-8" value="" style="endArrow=classic;html=1;rounded=0;exitX=1;exitY=0.5;exitDx=0;exitDy=0;fontSize=10;entryX=0;entryY=0.5;entryDx=0;entryDy=0;" edge="1" parent="1" source="LMHyC45OCO51PbOUbwfd-1" target="5n5htKYlwA2j8NTGIH6a-18">
          <mxGeometry width="50" height="50" relative="1" as="geometry">
            <mxPoint x="240" y="570" as="sourcePoint" />
            <mxPoint x="340" y="570" as="targetPoint" />
          </mxGeometry>
        </mxCell>
        <mxCell id="LMHyC45OCO51PbOUbwfd-9" value="" style="endArrow=classic;html=1;rounded=0;exitX=1;exitY=0.5;exitDx=0;exitDy=0;fontSize=10;entryX=0;entryY=0.5;entryDx=0;entryDy=0;" edge="1" parent="1" source="LMHyC45OCO51PbOUbwfd-1" target="LMHyC45OCO51PbOUbwfd-10">
          <mxGeometry width="50" height="50" relative="1" as="geometry">
            <mxPoint x="240" y="570" as="sourcePoint" />
            <mxPoint x="240" y="650" as="targetPoint" />
          </mxGeometry>
        </mxCell>
        <mxCell id="LMHyC45OCO51PbOUbwfd-10" value="&lt;font color=&quot;#000000&quot;&gt;create_user&lt;/font&gt;" style="html=1;whiteSpace=wrap;fillColor=#f8cecc;strokeColor=#b85450;fontSize=10;" vertex="1" parent="1">
          <mxGeometry x="240" y="410" width="160" height="30" as="geometry" />
        </mxCell>
        <mxCell id="LMHyC45OCO51PbOUbwfd-11" value="Creates and returns a new user agent" style="text;whiteSpace=wrap;fontSize=8;verticalAlign=middle;" vertex="1" parent="1">
          <mxGeometry x="240" y="420" width="160" height="50" as="geometry" />
        </mxCell>
        <mxCell id="LMHyC45OCO51PbOUbwfd-33" value="get_device_index" style="rounded=0;whiteSpace=wrap;html=1;fillColor=#f8cecc;strokeColor=#b85450;fontSize=10;" vertex="1" parent="1">
          <mxGeometry x="480" y="60" width="90" height="30" as="geometry" />
        </mxCell>
        <mxCell id="LMHyC45OCO51PbOUbwfd-34" value="" style="endArrow=classic;html=1;rounded=0;entryX=0;entryY=0.5;entryDx=0;entryDy=0;exitX=1;exitY=0.5;exitDx=0;exitDy=0;" edge="1" parent="1" source="LMHyC45OCO51PbOUbwfd-3" target="LMHyC45OCO51PbOUbwfd-33">
          <mxGeometry width="50" height="50" relative="1" as="geometry">
            <mxPoint x="415" y="817.5" as="sourcePoint" />
            <mxPoint x="605" y="877.5" as="targetPoint" />
          </mxGeometry>
        </mxCell>
        <mxCell id="LMHyC45OCO51PbOUbwfd-35" value="Get the targetÂ device index for the target microphone." style="text;whiteSpace=wrap;fontSize=8;verticalAlign=middle;" vertex="1" parent="1">
          <mxGeometry x="480" y="70" width="100" height="60" as="geometry" />
        </mxCell>
        <mxCell id="LMHyC45OCO51PbOUbwfd-36" value="Initialize robotic arm functions using specification and general parameters" style="text;whiteSpace=wrap;fontSize=8;verticalAlign=middle;" vertex="1" parent="1">
          <mxGeometry x="257.5" y="1470" width="160" height="50" as="geometry" />
        </mxCell>
        <mxCell id="LMHyC45OCO51PbOUbwfd-37" value="&lt;font color=&quot;#000000&quot;&gt;RoboticArmFunctions&lt;/font&gt;" style="html=1;whiteSpace=wrap;fillColor=#60a917;fontColor=#ffffff;strokeColor=#2D7600;fontSize=10;" vertex="1" parent="1">
          <mxGeometry x="255" y="1450" width="160" height="30" as="geometry" />
        </mxCell>
        <mxCell id="LMHyC45OCO51PbOUbwfd-38" value="" style="endArrow=classic;html=1;rounded=0;exitX=1;exitY=0.5;exitDx=0;exitDy=0;fontSize=10;entryX=0;entryY=0.5;entryDx=0;entryDy=0;" edge="1" parent="1" source="LMHyC45OCO51PbOUbwfd-1" target="LMHyC45OCO51PbOUbwfd-37">
          <mxGeometry width="50" height="50" relative="1" as="geometry">
            <mxPoint x="460" y="525" as="sourcePoint" />
            <mxPoint x="560" y="450" as="targetPoint" />
          </mxGeometry>
        </mxCell>
        <mxCell id="LMHyC45OCO51PbOUbwfd-39" value="&lt;font color=&quot;#000000&quot;&gt;create_robot_agents&lt;/font&gt;" style="html=1;whiteSpace=wrap;fillColor=#f8cecc;strokeColor=#b85450;fontSize=10;" vertex="1" parent="1">
          <mxGeometry x="240" y="485" width="160" height="30" as="geometry" />
        </mxCell>
        <mxCell id="LMHyC45OCO51PbOUbwfd-40" value="" style="endArrow=classic;html=1;rounded=0;exitX=1;exitY=0.5;exitDx=0;exitDy=0;fontSize=10;entryX=0;entryY=0.5;entryDx=0;entryDy=0;" edge="1" parent="1" source="LMHyC45OCO51PbOUbwfd-1" target="LMHyC45OCO51PbOUbwfd-39">
          <mxGeometry width="50" height="50" relative="1" as="geometry">
            <mxPoint x="510" y="520" as="sourcePoint" />
            <mxPoint x="610" y="520" as="targetPoint" />
          </mxGeometry>
        </mxCell>
        <mxCell id="LMHyC45OCO51PbOUbwfd-41" value="Â Creates a list of LLM-based robot agents based on provided initialization data&#xa;Â  Â  and function references. Each agent is configured with specific functions andÂ &#xa;Â  Â  instructions as defined in its configuration file." style="text;whiteSpace=wrap;fontSize=8;verticalAlign=middle;" vertex="1" parent="1">
          <mxGeometry x="240" y="515" width="170" height="60" as="geometry" />
        </mxCell>
        <mxCell id="LMHyC45OCO51PbOUbwfd-42" value="&lt;span style=&quot;font-size: 10px;&quot;&gt;agents_list&lt;/span&gt;" style="rounded=0;whiteSpace=wrap;html=1;fillColor=#e1d5e7;strokeColor=#9673a6;" vertex="1" parent="1">
          <mxGeometry x="480" y="455" width="90" height="30" as="geometry" />
        </mxCell>
        <mxCell id="LMHyC45OCO51PbOUbwfd-43" value="" style="endArrow=classic;html=1;rounded=0;fontSize=10;entryX=0;entryY=0.5;entryDx=0;entryDy=0;exitX=1;exitY=0;exitDx=0;exitDy=0;" edge="1" parent="1" source="LMHyC45OCO51PbOUbwfd-11" target="LMHyC45OCO51PbOUbwfd-42">
          <mxGeometry width="50" height="50" relative="1" as="geometry">
            <mxPoint x="440" y="410" as="sourcePoint" />
            <mxPoint x="580" y="430" as="targetPoint" />
          </mxGeometry>
        </mxCell>
        <mxCell id="LMHyC45OCO51PbOUbwfd-44" value="" style="endArrow=classic;html=1;rounded=0;fontSize=10;entryX=0;entryY=0.5;entryDx=0;entryDy=0;exitX=1;exitY=0.5;exitDx=0;exitDy=0;" edge="1" parent="1" source="LMHyC45OCO51PbOUbwfd-39" target="LMHyC45OCO51PbOUbwfd-42">
          <mxGeometry width="50" height="50" relative="1" as="geometry">
            <mxPoint x="530" y="560" as="sourcePoint" />
            <mxPoint x="610" y="635" as="targetPoint" />
          </mxGeometry>
        </mxCell>
        <mxCell id="LMHyC45OCO51PbOUbwfd-45" value="Lists of agents" style="text;whiteSpace=wrap;fontSize=8;verticalAlign=middle;" vertex="1" parent="1">
          <mxGeometry x="480" y="477.5" width="90" height="22.5" as="geometry" />
        </mxCell>
        <mxCell id="LMHyC45OCO51PbOUbwfd-46" value="" style="endArrow=classic;html=1;rounded=0;fontSize=10;entryX=0.5;entryY=1;entryDx=0;entryDy=0;exitX=0.441;exitY=-0.055;exitDx=0;exitDy=0;exitPerimeter=0;" edge="1" parent="1" source="LMHyC45OCO51PbOUbwfd-37" target="LMHyC45OCO51PbOUbwfd-39">
          <mxGeometry width="50" height="50" relative="1" as="geometry">
            <mxPoint x="320" y="590" as="sourcePoint" />
            <mxPoint x="695" y="630" as="targetPoint" />
          </mxGeometry>
        </mxCell>
        <mxCell id="LMHyC45OCO51PbOUbwfd-48" value="&lt;font color=&quot;#000000&quot;&gt;AgentManagementSystem&lt;/font&gt;" style="html=1;whiteSpace=wrap;fillColor=#60a917;strokeColor=#2D7600;fontSize=10;fontColor=#ffffff;" vertex="1" parent="1">
          <mxGeometry x="240" y="690" width="160" height="30" as="geometry" />
        </mxCell>
        <mxCell id="LMHyC45OCO51PbOUbwfd-50" value="" style="endArrow=classic;html=1;rounded=0;exitX=1;exitY=0.5;exitDx=0;exitDy=0;fontSize=10;entryX=0;entryY=0.5;entryDx=0;entryDy=0;" edge="1" parent="1" source="LMHyC45OCO51PbOUbwfd-1" target="LMHyC45OCO51PbOUbwfd-48">
          <mxGeometry width="50" height="50" relative="1" as="geometry">
            <mxPoint x="480" y="610" as="sourcePoint" />
            <mxPoint x="580" y="725" as="targetPoint" />
          </mxGeometry>
        </mxCell>
        <mxCell id="LMHyC45OCO51PbOUbwfd-51" value="" style="endArrow=classic;html=1;rounded=0;fontSize=10;entryX=0.5;entryY=0;entryDx=0;entryDy=0;exitX=0.5;exitY=1;exitDx=0;exitDy=0;" edge="1" parent="1" source="LMHyC45OCO51PbOUbwfd-42" target="LMHyC45OCO51PbOUbwfd-48">
          <mxGeometry width="50" height="50" relative="1" as="geometry">
            <mxPoint x="530" y="570" as="sourcePoint" />
            <mxPoint x="600" y="550" as="targetPoint" />
          </mxGeometry>
        </mxCell>
        <mxCell id="LMHyC45OCO51PbOUbwfd-52" value="initialize agents, handle task queues, and manage threads forÂ concurrent agent execution." style="text;whiteSpace=wrap;fontSize=8;verticalAlign=middle;" vertex="1" parent="1">
          <mxGeometry x="240" y="710" width="160" height="50" as="geometry" />
        </mxCell>
        <mxCell id="FdBrvyd9gPW8Az-HZR0f-2" value="" style="endArrow=classic;html=1;rounded=0;entryX=0;entryY=0.5;entryDx=0;entryDy=0;exitX=1;exitY=0.5;exitDx=0;exitDy=0;" edge="1" parent="1" source="5n5htKYlwA2j8NTGIH6a-18" target="evL0q8HehRQx2sm4fGle-21">
          <mxGeometry width="50" height="50" relative="1" as="geometry">
            <mxPoint x="720" y="288" as="sourcePoint" />
            <mxPoint x="800" y="140" as="targetPoint" />
          </mxGeometry>
        </mxCell>
        <mxCell id="FdBrvyd9gPW8Az-HZR0f-3" value="" style="endArrow=classic;html=1;rounded=0;entryX=0;entryY=0.5;entryDx=0;entryDy=0;exitX=1;exitY=0.5;exitDx=0;exitDy=0;" edge="1" parent="1" source="5n5htKYlwA2j8NTGIH6a-18" target="evL0q8HehRQx2sm4fGle-28">
          <mxGeometry width="50" height="50" relative="1" as="geometry">
            <mxPoint x="770" y="397" as="sourcePoint" />
            <mxPoint x="850" y="240" as="targetPoint" />
          </mxGeometry>
        </mxCell>
        <mxCell id="FdBrvyd9gPW8Az-HZR0f-4" value="" style="endArrow=classic;html=1;rounded=0;entryX=0;entryY=0.5;entryDx=0;entryDy=0;exitX=1;exitY=0.5;exitDx=0;exitDy=0;" edge="1" parent="1" source="5n5htKYlwA2j8NTGIH6a-18" target="evL0q8HehRQx2sm4fGle-35">
          <mxGeometry width="50" height="50" relative="1" as="geometry">
            <mxPoint x="440" y="320" as="sourcePoint" />
            <mxPoint x="900" y="310" as="targetPoint" />
          </mxGeometry>
        </mxCell>
        <mxCell id="FdBrvyd9gPW8Az-HZR0f-5" value="" style="endArrow=classic;html=1;rounded=0;entryX=0;entryY=0.5;entryDx=0;entryDy=0;exitX=1;exitY=0.5;exitDx=0;exitDy=0;" edge="1" parent="1" source="5n5htKYlwA2j8NTGIH6a-18" target="KtwAlY6Ba2kB0IQo1Yln-62">
          <mxGeometry width="50" height="50" relative="1" as="geometry">
            <mxPoint x="750" y="497" as="sourcePoint" />
            <mxPoint x="830" y="340" as="targetPoint" />
          </mxGeometry>
        </mxCell>
        <mxCell id="LMHyC45OCO51PbOUbwfd-61" value="" style="endArrow=classic;html=1;rounded=0;exitX=1;exitY=0.5;exitDx=0;exitDy=0;fontSize=10;entryX=0;entryY=0.5;entryDx=0;entryDy=0;" edge="1" parent="1" source="LMHyC45OCO51PbOUbwfd-1" target="LMHyC45OCO51PbOUbwfd-62">
          <mxGeometry width="50" height="50" relative="1" as="geometry">
            <mxPoint x="410" y="920" as="sourcePoint" />
            <mxPoint x="240" y="949.5652173913044" as="targetPoint" />
          </mxGeometry>
        </mxCell>
        <mxCell id="LMHyC45OCO51PbOUbwfd-62" value="&lt;font color=&quot;#000000&quot;&gt;run_voice_control&lt;/font&gt;" style="html=1;whiteSpace=wrap;fillColor=#f8cecc;strokeColor=#b85450;fontSize=10;" vertex="1" parent="1">
          <mxGeometry x="245" y="1010" width="155" height="30" as="geometry" />
        </mxCell>
        <mxCell id="LMHyC45OCO51PbOUbwfd-63" value="Starts the voice control system to monitor microphone activity and executeÂ appropriate actions upon sound detection." style="text;whiteSpace=wrap;fontSize=8;verticalAlign=middle;" vertex="1" parent="1">
          <mxGeometry x="245" y="1030" width="160" height="50" as="geometry" />
        </mxCell>
        <mxCell id="LMHyC45OCO51PbOUbwfd-64" value="" style="endArrow=classic;html=1;rounded=0;fontSize=10;exitX=1;exitY=0.5;exitDx=0;exitDy=0;entryX=0;entryY=0.5;entryDx=0;entryDy=0;" edge="1" parent="1" source="LMHyC45OCO51PbOUbwfd-62" target="LMHyC45OCO51PbOUbwfd-65">
          <mxGeometry width="50" height="50" relative="1" as="geometry">
            <mxPoint x="530" y="970" as="sourcePoint" />
            <mxPoint x="480" y="1025" as="targetPoint" />
          </mxGeometry>
        </mxCell>
        <mxCell id="LMHyC45OCO51PbOUbwfd-65" value="&lt;font color=&quot;#000000&quot;&gt;monitor_microphone_activity&lt;/font&gt;" style="html=1;whiteSpace=wrap;fillColor=#f8cecc;strokeColor=#b85450;fontSize=10;" vertex="1" parent="1">
          <mxGeometry x="480" y="1010" width="140" height="30" as="geometry" />
        </mxCell>
        <mxCell id="LMHyC45OCO51PbOUbwfd-66" value="Monitors the microphone input for activity and triggers callbacks." style="text;whiteSpace=wrap;fontSize=8;verticalAlign=middle;" vertex="1" parent="1">
          <mxGeometry x="480" y="1020" width="140" height="60" as="geometry" />
        </mxCell>
        <mxCell id="LMHyC45OCO51PbOUbwfd-67" value="" style="endArrow=classic;html=1;rounded=0;fontSize=10;exitX=1;exitY=0.5;exitDx=0;exitDy=0;entryX=0;entryY=0.5;entryDx=0;entryDy=0;" edge="1" parent="1" source="LMHyC45OCO51PbOUbwfd-65" target="LMHyC45OCO51PbOUbwfd-68">
          <mxGeometry width="50" height="50" relative="1" as="geometry">
            <mxPoint x="730" y="960" as="sourcePoint" />
            <mxPoint x="710" y="970" as="targetPoint" />
          </mxGeometry>
        </mxCell>
        <mxCell id="LMHyC45OCO51PbOUbwfd-68" value="&lt;font color=&quot;#000000&quot;&gt;start_sound_detected&lt;/font&gt;" style="html=1;whiteSpace=wrap;fillColor=#f8cecc;strokeColor=#b85450;fontSize=10;" vertex="1" parent="1">
          <mxGeometry x="680" y="950" width="140" height="30" as="geometry" />
        </mxCell>
        <mxCell id="LMHyC45OCO51PbOUbwfd-69" value="Callback triggeresd when sound is detected." style="text;whiteSpace=wrap;fontSize=8;verticalAlign=middle;" vertex="1" parent="1">
          <mxGeometry x="680" y="960" width="145" height="60" as="geometry" />
        </mxCell>
        <mxCell id="LMHyC45OCO51PbOUbwfd-70" value="&lt;font color=&quot;#000000&quot;&gt;stop_sound_detected&lt;/font&gt;" style="html=1;whiteSpace=wrap;fillColor=#f8cecc;strokeColor=#b85450;fontSize=10;" vertex="1" parent="1">
          <mxGeometry x="680" y="1070" width="140" height="30" as="geometry" />
        </mxCell>
        <mxCell id="LMHyC45OCO51PbOUbwfd-71" value="Callback triggered when no significant sound is detected." style="text;whiteSpace=wrap;fontSize=8;verticalAlign=middle;" vertex="1" parent="1">
          <mxGeometry x="680" y="1080" width="145" height="60" as="geometry" />
        </mxCell>
        <mxCell id="LMHyC45OCO51PbOUbwfd-73" value="" style="endArrow=classic;html=1;rounded=0;fontSize=10;exitX=1;exitY=0.5;exitDx=0;exitDy=0;entryX=0;entryY=0.5;entryDx=0;entryDy=0;" edge="1" parent="1" source="LMHyC45OCO51PbOUbwfd-65" target="LMHyC45OCO51PbOUbwfd-70">
          <mxGeometry width="50" height="50" relative="1" as="geometry">
            <mxPoint x="940" y="1060" as="sourcePoint" />
            <mxPoint x="680" y="1040" as="targetPoint" />
          </mxGeometry>
        </mxCell>
        <mxCell id="LMHyC45OCO51PbOUbwfd-74" value="&lt;font color=&quot;#000000&quot;&gt;start_recording&lt;/font&gt;" style="html=1;whiteSpace=wrap;fillColor=#f8cecc;strokeColor=#b85450;fontSize=10;" vertex="1" parent="1">
          <mxGeometry x="890" y="950" width="110" height="30" as="geometry" />
        </mxCell>
        <mxCell id="LMHyC45OCO51PbOUbwfd-75" value="" style="endArrow=classic;html=1;rounded=0;fontSize=10;entryX=0;entryY=0.5;entryDx=0;entryDy=0;exitX=1;exitY=0.5;exitDx=0;exitDy=0;" edge="1" parent="1" source="LMHyC45OCO51PbOUbwfd-68" target="LMHyC45OCO51PbOUbwfd-74">
          <mxGeometry width="50" height="50" relative="1" as="geometry">
            <mxPoint x="840" y="950" as="sourcePoint" />
            <mxPoint x="940" y="920" as="targetPoint" />
          </mxGeometry>
        </mxCell>
        <mxCell id="LMHyC45OCO51PbOUbwfd-76" value="Starts recording audio in a separate thread if not already recording." style="text;whiteSpace=wrap;fontSize=8;verticalAlign=middle;" vertex="1" parent="1">
          <mxGeometry x="890" y="960" width="120" height="70" as="geometry" />
        </mxCell>
        <mxCell id="LMHyC45OCO51PbOUbwfd-77" value="" style="endArrow=classic;html=1;rounded=0;fontSize=10;exitX=1;exitY=0.5;exitDx=0;exitDy=0;entryX=0;entryY=0.5;entryDx=0;entryDy=0;" edge="1" parent="1" source="LMHyC45OCO51PbOUbwfd-70" target="LMHyC45OCO51PbOUbwfd-78">
          <mxGeometry width="50" height="50" relative="1" as="geometry">
            <mxPoint x="810" y="1040" as="sourcePoint" />
            <mxPoint x="900" y="1085" as="targetPoint" />
          </mxGeometry>
        </mxCell>
        <mxCell id="LMHyC45OCO51PbOUbwfd-78" value="&lt;font color=&quot;#000000&quot;&gt;stop_recording&lt;/font&gt;" style="html=1;whiteSpace=wrap;fillColor=#f8cecc;strokeColor=#b85450;fontSize=10;" vertex="1" parent="1">
          <mxGeometry x="890" y="1070" width="110" height="30" as="geometry" />
        </mxCell>
        <mxCell id="LMHyC45OCO51PbOUbwfd-79" value="Stops the audio recording." style="text;whiteSpace=wrap;fontSize=8;verticalAlign=middle;" vertex="1" parent="1">
          <mxGeometry x="890" y="1090" width="110" height="30" as="geometry" />
        </mxCell>
        <mxCell id="LMHyC45OCO51PbOUbwfd-80" value="&lt;font color=&quot;#000000&quot;&gt;record_audio&lt;/font&gt;" style="html=1;whiteSpace=wrap;fillColor=#f8cecc;strokeColor=#b85450;fontSize=10;" vertex="1" parent="1">
          <mxGeometry x="1060" y="950" width="110" height="30" as="geometry" />
        </mxCell>
        <mxCell id="LMHyC45OCO51PbOUbwfd-81" value="" style="endArrow=classic;html=1;rounded=0;fontSize=10;entryX=0;entryY=0.5;entryDx=0;entryDy=0;exitX=1;exitY=0.5;exitDx=0;exitDy=0;" edge="1" parent="1" source="LMHyC45OCO51PbOUbwfd-74" target="LMHyC45OCO51PbOUbwfd-80">
          <mxGeometry width="50" height="50" relative="1" as="geometry">
            <mxPoint x="1080" y="920" as="sourcePoint" />
            <mxPoint x="1160" y="920" as="targetPoint" />
          </mxGeometry>
        </mxCell>
        <mxCell id="LMHyC45OCO51PbOUbwfd-82" value="Records audio using PvRecorder and stores it in the audio list." style="text;whiteSpace=wrap;fontSize=8;verticalAlign=middle;" vertex="1" parent="1">
          <mxGeometry x="1055" y="960" width="120" height="60" as="geometry" />
        </mxCell>
        <mxCell id="LMHyC45OCO51PbOUbwfd-83" value="&lt;font color=&quot;#000000&quot;&gt;save_recording&lt;/font&gt;" style="html=1;whiteSpace=wrap;fillColor=#f8cecc;strokeColor=#b85450;fontSize=10;" vertex="1" parent="1">
          <mxGeometry x="1220" y="950" width="110" height="30" as="geometry" />
        </mxCell>
        <mxCell id="LMHyC45OCO51PbOUbwfd-84" value="" style="endArrow=classic;html=1;rounded=0;fontSize=10;entryX=0;entryY=0.5;entryDx=0;entryDy=0;exitX=1;exitY=0.5;exitDx=0;exitDy=0;" edge="1" parent="1" source="LMHyC45OCO51PbOUbwfd-80" target="LMHyC45OCO51PbOUbwfd-83">
          <mxGeometry width="50" height="50" relative="1" as="geometry">
            <mxPoint x="1200" y="900" as="sourcePoint" />
            <mxPoint x="1260" y="900" as="targetPoint" />
          </mxGeometry>
        </mxCell>
        <mxCell id="LMHyC45OCO51PbOUbwfd-85" value="Saves the recorded audio to a WAV file." style="text;whiteSpace=wrap;fontSize=8;verticalAlign=middle;" vertex="1" parent="1">
          <mxGeometry x="1215" y="960" width="120" height="60" as="geometry" />
        </mxCell>
        <mxCell id="LMHyC45OCO51PbOUbwfd-87" value="" style="endArrow=classic;html=1;rounded=0;fontSize=10;entryX=0.5;entryY=0;entryDx=0;entryDy=0;exitX=0.5;exitY=1;exitDx=0;exitDy=0;" edge="1" parent="1" source="LMHyC45OCO51PbOUbwfd-68" target="LMHyC45OCO51PbOUbwfd-70">
          <mxGeometry width="50" height="50" relative="1" as="geometry">
            <mxPoint x="1120" y="820" as="sourcePoint" />
            <mxPoint x="940" y="915" as="targetPoint" />
          </mxGeometry>
        </mxCell>
        <mxCell id="LMHyC45OCO51PbOUbwfd-89" value="" style="endArrow=classic;html=1;rounded=0;fontSize=10;exitX=1;exitY=0.5;exitDx=0;exitDy=0;entryX=0;entryY=0.5;entryDx=0;entryDy=0;" edge="1" parent="1" source="LMHyC45OCO51PbOUbwfd-65" target="LMHyC45OCO51PbOUbwfd-90">
          <mxGeometry width="50" height="50" relative="1" as="geometry">
            <mxPoint x="630" y="1030" as="sourcePoint" />
            <mxPoint x="680" y="1180" as="targetPoint" />
          </mxGeometry>
        </mxCell>
        <mxCell id="LMHyC45OCO51PbOUbwfd-90" value="&lt;font color=&quot;#000000&quot;&gt;User_Interface&lt;/font&gt;" style="html=1;whiteSpace=wrap;fillColor=#60a917;strokeColor=#2D7600;fontSize=10;fontColor=#ffffff;" vertex="1" parent="1">
          <mxGeometry x="680" y="1160" width="140" height="30" as="geometry" />
        </mxCell>
        <mxCell id="LMHyC45OCO51PbOUbwfd-91" value="Created a user interface displacing the interaction words between robot and human" style="text;whiteSpace=wrap;fontSize=8;verticalAlign=middle;" vertex="1" parent="1">
          <mxGeometry x="680" y="1170" width="160" height="60" as="geometry" />
        </mxCell>
        <mxCell id="LMHyC45OCO51PbOUbwfd-92" value="" style="endArrow=classic;html=1;rounded=0;fontSize=10;exitX=1;exitY=0.5;exitDx=0;exitDy=0;entryX=0;entryY=0.5;entryDx=0;entryDy=0;" edge="1" parent="1" source="LMHyC45OCO51PbOUbwfd-78" target="LMHyC45OCO51PbOUbwfd-93">
          <mxGeometry width="50" height="50" relative="1" as="geometry">
            <mxPoint x="1140" y="1070" as="sourcePoint" />
            <mxPoint x="1060" y="1085" as="targetPoint" />
          </mxGeometry>
        </mxCell>
        <mxCell id="LMHyC45OCO51PbOUbwfd-93" value="&lt;font color=&quot;#000000&quot;&gt;transcribe_and_append_command&lt;/font&gt;" style="html=1;whiteSpace=wrap;fillColor=#f8cecc;strokeColor=#b85450;fontSize=10;" vertex="1" parent="1">
          <mxGeometry x="1060" y="1070" width="160" height="30" as="geometry" />
        </mxCell>
        <mxCell id="LMHyC45OCO51PbOUbwfd-95" value="Transcribes audio, logs the command, and sends it to robotic arm agents." style="text;whiteSpace=wrap;fontSize=8;verticalAlign=middle;" vertex="1" parent="1">
          <mxGeometry x="1060" y="1080" width="160" height="60" as="geometry" />
        </mxCell>
        <mxCell id="LMHyC45OCO51PbOUbwfd-96" value="" style="endArrow=classic;html=1;rounded=0;fontSize=10;entryX=0.5;entryY=0;entryDx=0;entryDy=0;exitX=0.5;exitY=1;exitDx=0;exitDy=0;" edge="1" parent="1" source="LMHyC45OCO51PbOUbwfd-83" target="LMHyC45OCO51PbOUbwfd-93">
          <mxGeometry width="50" height="50" relative="1" as="geometry">
            <mxPoint x="1280" y="940" as="sourcePoint" />
            <mxPoint x="1350" y="930" as="targetPoint" />
          </mxGeometry>
        </mxCell>
        <mxCell id="LMHyC45OCO51PbOUbwfd-99" value="" style="endArrow=none;dashed=1;html=1;rounded=0;strokeWidth=2;" edge="1" parent="1">
          <mxGeometry width="50" height="50" relative="1" as="geometry">
            <mxPoint x="220" y="950" as="sourcePoint" />
            <mxPoint x="1390" y="940" as="targetPoint" />
          </mxGeometry>
        </mxCell>
        <mxCell id="LMHyC45OCO51PbOUbwfd-100" value="" style="endArrow=none;dashed=1;html=1;rounded=0;strokeWidth=2;" edge="1" parent="1">
          <mxGeometry width="50" height="50" relative="1" as="geometry">
            <mxPoint x="1390" y="940" as="sourcePoint" />
            <mxPoint x="1390" y="1210" as="targetPoint" />
          </mxGeometry>
        </mxCell>
        <mxCell id="LMHyC45OCO51PbOUbwfd-101" value="" style="endArrow=none;dashed=1;html=1;rounded=0;strokeWidth=2;" edge="1" parent="1">
          <mxGeometry width="50" height="50" relative="1" as="geometry">
            <mxPoint x="220" y="1220" as="sourcePoint" />
            <mxPoint x="1390" y="1210" as="targetPoint" />
          </mxGeometry>
        </mxCell>
        <mxCell id="LMHyC45OCO51PbOUbwfd-102" value="" style="endArrow=none;dashed=1;html=1;rounded=0;strokeWidth=2;" edge="1" parent="1">
          <mxGeometry width="50" height="50" relative="1" as="geometry">
            <mxPoint x="220" y="950" as="sourcePoint" />
            <mxPoint x="220" y="1220" as="targetPoint" />
          </mxGeometry>
        </mxCell>
        <mxCell id="LMHyC45OCO51PbOUbwfd-103" value="&lt;b&gt;&lt;font style=&quot;color: rgb(255, 0, 0);&quot;&gt;This block process the voice command from the operator and pass to the robot agent&amp;nbsp; (NOTE: although these functions are in the same block, do not mean they are in the same Class&lt;/font&gt;&lt;/b&gt;" style="text;strokeColor=none;align=center;fillColor=none;html=1;verticalAlign=middle;whiteSpace=wrap;rounded=0;" vertex="1" parent="1">
          <mxGeometry x="595" y="1220" width="410" height="30" as="geometry" />
        </mxCell>
        <mxCell id="LMHyC45OCO51PbOUbwfd-105" value="" style="endArrow=classic;html=1;rounded=0;fontSize=10;exitX=1;exitY=0;exitDx=0;exitDy=0;entryX=0;entryY=0.5;entryDx=0;entryDy=0;" edge="1" parent="1" source="LMHyC45OCO51PbOUbwfd-11" target="LMHyC45OCO51PbOUbwfd-107">
          <mxGeometry width="50" height="50" relative="1" as="geometry">
            <mxPoint x="690" y="440" as="sourcePoint" />
            <mxPoint x="680" y="240" as="targetPoint" />
          </mxGeometry>
        </mxCell>
        <mxCell id="LMHyC45OCO51PbOUbwfd-106" value="" style="endArrow=classic;html=1;rounded=0;fontSize=10;exitX=1;exitY=0.5;exitDx=0;exitDy=0;entryX=0;entryY=0.5;entryDx=0;entryDy=0;" edge="1" parent="1" source="LMHyC45OCO51PbOUbwfd-39" target="LMHyC45OCO51PbOUbwfd-128">
          <mxGeometry width="50" height="50" relative="1" as="geometry">
            <mxPoint x="710" y="450" as="sourcePoint" />
            <mxPoint x="640" y="630" as="targetPoint" />
          </mxGeometry>
        </mxCell>
        <mxCell id="LMHyC45OCO51PbOUbwfd-107" value="run" style="rounded=0;whiteSpace=wrap;html=1;fillColor=#f8cecc;strokeColor=#b85450;fontSize=10;" vertex="1" parent="1">
          <mxGeometry x="635" y="267.5" width="110" height="30" as="geometry" />
        </mxCell>
        <mxCell id="LMHyC45OCO51PbOUbwfd-108" value="Starts the agent&#39;s message and command processing in separate threads.Â " style="text;whiteSpace=wrap;fontSize=8;verticalAlign=middle;" vertex="1" parent="1">
          <mxGeometry x="630" y="290" width="120" height="50" as="geometry" />
        </mxCell>
        <mxCell id="LMHyC45OCO51PbOUbwfd-110" value="" style="endArrow=classic;html=1;rounded=0;fontSize=10;exitX=0.5;exitY=0;exitDx=0;exitDy=0;entryX=1;entryY=0.5;entryDx=0;entryDy=0;" edge="1" parent="1" source="LMHyC45OCO51PbOUbwfd-93" target="LMHyC45OCO51PbOUbwfd-137">
          <mxGeometry width="50" height="50" relative="1" as="geometry">
            <mxPoint x="1325" y="750" as="sourcePoint" />
            <mxPoint x="910" y="290" as="targetPoint" />
          </mxGeometry>
        </mxCell>
        <mxCell id="LMHyC45OCO51PbOUbwfd-112" value="" style="endArrow=classic;html=1;rounded=0;exitX=1;exitY=0.5;exitDx=0;exitDy=0;entryX=0;entryY=0.5;entryDx=0;entryDy=0;" edge="1" parent="1" source="LMHyC45OCO51PbOUbwfd-107" target="LMHyC45OCO51PbOUbwfd-134">
          <mxGeometry width="50" height="50" relative="1" as="geometry">
            <mxPoint x="800" y="308" as="sourcePoint" />
            <mxPoint x="840" y="180" as="targetPoint" />
          </mxGeometry>
        </mxCell>
        <mxCell id="LMHyC45OCO51PbOUbwfd-113" value="process_inbox" style="rounded=0;whiteSpace=wrap;html=1;fillColor=#f8cecc;strokeColor=#b85450;fontSize=10;" vertex="1" parent="1">
          <mxGeometry x="915" y="175" width="110" height="30" as="geometry" />
        </mxCell>
        <mxCell id="LMHyC45OCO51PbOUbwfd-114" value="process_commands" style="rounded=0;whiteSpace=wrap;html=1;fillColor=#f8cecc;strokeColor=#b85450;fontSize=10;" vertex="1" parent="1">
          <mxGeometry x="780" y="365" width="110" height="30" as="geometry" />
        </mxCell>
        <mxCell id="LMHyC45OCO51PbOUbwfd-115" value="" style="endArrow=classic;html=1;rounded=0;exitX=1;exitY=0.5;exitDx=0;exitDy=0;entryX=0;entryY=0.5;entryDx=0;entryDy=0;" edge="1" parent="1" source="LMHyC45OCO51PbOUbwfd-107" target="LMHyC45OCO51PbOUbwfd-114">
          <mxGeometry width="50" height="50" relative="1" as="geometry">
            <mxPoint x="940" y="288" as="sourcePoint" />
            <mxPoint x="990" y="230" as="targetPoint" />
          </mxGeometry>
        </mxCell>
        <mxCell id="LMHyC45OCO51PbOUbwfd-116" value="Continuously processes incoming messages in the inbox" style="text;whiteSpace=wrap;fontSize=8;verticalAlign=middle;" vertex="1" parent="1">
          <mxGeometry x="910" y="192.5" width="120" height="50" as="geometry" />
        </mxCell>
        <mxCell id="LMHyC45OCO51PbOUbwfd-118" value="_speak_and_log" style="rounded=0;whiteSpace=wrap;html=1;fillColor=#f8cecc;strokeColor=#b85450;fontSize=10;" vertex="1" parent="1">
          <mxGeometry x="1055" y="175" width="110" height="30" as="geometry" />
        </mxCell>
        <mxCell id="LMHyC45OCO51PbOUbwfd-119" value="" style="endArrow=classic;html=1;rounded=0;exitX=1;exitY=0.5;exitDx=0;exitDy=0;entryX=0;entryY=0.5;entryDx=0;entryDy=0;" edge="1" parent="1" source="LMHyC45OCO51PbOUbwfd-113" target="LMHyC45OCO51PbOUbwfd-118">
          <mxGeometry width="50" height="50" relative="1" as="geometry">
            <mxPoint x="1025" y="193" as="sourcePoint" />
            <mxPoint x="1075" y="135" as="targetPoint" />
          </mxGeometry>
        </mxCell>
        <mxCell id="LMHyC45OCO51PbOUbwfd-120" value="Outputs a message through voice control and logs it to the UI." style="text;whiteSpace=wrap;fontSize=8;verticalAlign=middle;" vertex="1" parent="1">
          <mxGeometry x="1055" y="192.5" width="120" height="50" as="geometry" />
        </mxCell>
        <mxCell id="LMHyC45OCO51PbOUbwfd-122" value="Continuously processes commands, sending them to specified peers" style="text;whiteSpace=wrap;fontSize=8;verticalAlign=middle;" vertex="1" parent="1">
          <mxGeometry x="767.5" y="382.5" width="135" height="50" as="geometry" />
        </mxCell>
        <mxCell id="LMHyC45OCO51PbOUbwfd-123" value="" style="endArrow=none;dashed=1;html=1;rounded=0;strokeWidth=2;" edge="1" parent="1">
          <mxGeometry width="50" height="50" relative="1" as="geometry">
            <mxPoint x="630" y="155" as="sourcePoint" />
            <mxPoint x="1170" y="154.5" as="targetPoint" />
          </mxGeometry>
        </mxCell>
        <mxCell id="LMHyC45OCO51PbOUbwfd-124" value="" style="endArrow=none;dashed=1;html=1;rounded=0;strokeWidth=2;" edge="1" parent="1">
          <mxGeometry width="50" height="50" relative="1" as="geometry">
            <mxPoint x="630" y="160" as="sourcePoint" />
            <mxPoint x="630" y="420" as="targetPoint" />
          </mxGeometry>
        </mxCell>
        <mxCell id="LMHyC45OCO51PbOUbwfd-125" value="" style="endArrow=none;dashed=1;html=1;rounded=0;strokeWidth=2;" edge="1" parent="1">
          <mxGeometry width="50" height="50" relative="1" as="geometry">
            <mxPoint x="1169.17" y="155" as="sourcePoint" />
            <mxPoint x="1169" y="420" as="targetPoint" />
          </mxGeometry>
        </mxCell>
        <mxCell id="LMHyC45OCO51PbOUbwfd-127" value="&lt;b&gt;&lt;font style=&quot;color: rgb(255, 0, 0);&quot;&gt;This block presents the user agent, receive the voice command and pass it to robot agent&lt;/font&gt;&lt;/b&gt;" style="text;strokeColor=none;align=center;fillColor=none;html=1;verticalAlign=middle;whiteSpace=wrap;rounded=0;" vertex="1" parent="1">
          <mxGeometry x="755" y="425" width="320" height="30" as="geometry" />
        </mxCell>
        <mxCell id="LMHyC45OCO51PbOUbwfd-128" value="run" style="rounded=0;whiteSpace=wrap;html=1;fillColor=#f8cecc;strokeColor=#b85450;fontSize=10;" vertex="1" parent="1">
          <mxGeometry x="520" y="610" width="110" height="30" as="geometry" />
        </mxCell>
        <mxCell id="LMHyC45OCO51PbOUbwfd-129" value="Starts the agent&#39;s inbox processing in a background thread." style="text;whiteSpace=wrap;fontSize=8;verticalAlign=middle;" vertex="1" parent="1">
          <mxGeometry x="500" y="630" width="120" height="50" as="geometry" />
        </mxCell>
        <mxCell id="LMHyC45OCO51PbOUbwfd-130" value="" style="endArrow=classic;html=1;rounded=0;fontSize=10;exitX=1;exitY=0.5;exitDx=0;exitDy=0;entryX=0;entryY=0.5;entryDx=0;entryDy=0;" edge="1" parent="1" source="LMHyC45OCO51PbOUbwfd-128" target="LMHyC45OCO51PbOUbwfd-163">
          <mxGeometry width="50" height="50" relative="1" as="geometry">
            <mxPoint x="765" y="640" as="sourcePoint" />
            <mxPoint x="685" y="550" as="targetPoint" />
          </mxGeometry>
        </mxCell>
        <mxCell id="LMHyC45OCO51PbOUbwfd-132" value="process_inbox" style="rounded=0;whiteSpace=wrap;html=1;fillColor=#f8cecc;strokeColor=#b85450;fontSize=10;" vertex="1" parent="1">
          <mxGeometry x="685" y="720" width="110" height="30" as="geometry" />
        </mxCell>
        <mxCell id="LMHyC45OCO51PbOUbwfd-133" value="" style="endArrow=classic;html=1;rounded=0;fontSize=10;exitX=1;exitY=0.5;exitDx=0;exitDy=0;entryX=0;entryY=0.5;entryDx=0;entryDy=0;" edge="1" parent="1" source="LMHyC45OCO51PbOUbwfd-128" target="LMHyC45OCO51PbOUbwfd-132">
          <mxGeometry width="50" height="50" relative="1" as="geometry">
            <mxPoint x="765" y="720" as="sourcePoint" />
            <mxPoint x="820" y="670" as="targetPoint" />
          </mxGeometry>
        </mxCell>
        <mxCell id="LMHyC45OCO51PbOUbwfd-134" value="message" style="rounded=0;whiteSpace=wrap;html=1;fillColor=#f8cecc;strokeColor=#b85450;fontSize=10;" vertex="1" parent="1">
          <mxGeometry x="780" y="175" width="110" height="30" as="geometry" />
        </mxCell>
        <mxCell id="LMHyC45OCO51PbOUbwfd-135" value="" style="endArrow=classic;html=1;rounded=0;exitX=1;exitY=0.5;exitDx=0;exitDy=0;entryX=0;entryY=0.5;entryDx=0;entryDy=0;" edge="1" parent="1" source="LMHyC45OCO51PbOUbwfd-134" target="LMHyC45OCO51PbOUbwfd-113">
          <mxGeometry width="50" height="50" relative="1" as="geometry">
            <mxPoint x="1080" y="120" as="sourcePoint" />
            <mxPoint x="1110" y="120" as="targetPoint" />
          </mxGeometry>
        </mxCell>
        <mxCell id="LMHyC45OCO51PbOUbwfd-136" value="Continuously processes incoming messages in the inbox" style="text;whiteSpace=wrap;fontSize=8;verticalAlign=middle;" vertex="1" parent="1">
          <mxGeometry x="775" y="187.5" width="120" height="50" as="geometry" />
        </mxCell>
        <mxCell id="LMHyC45OCO51PbOUbwfd-137" value="message" style="rounded=0;whiteSpace=wrap;html=1;fillColor=#f8cecc;strokeColor=#b85450;fontSize=10;" vertex="1" parent="1">
          <mxGeometry x="780" y="267.5" width="110" height="30" as="geometry" />
        </mxCell>
        <mxCell id="LMHyC45OCO51PbOUbwfd-138" value="Adds a received message to the inbox for processing." style="text;whiteSpace=wrap;fontSize=8;verticalAlign=middle;" vertex="1" parent="1">
          <mxGeometry x="775" y="283.75" width="120" height="50" as="geometry" />
        </mxCell>
        <mxCell id="LMHyC45OCO51PbOUbwfd-139" value="" style="endArrow=none;dashed=1;html=1;rounded=0;strokeWidth=2;" edge="1" parent="1">
          <mxGeometry width="50" height="50" relative="1" as="geometry">
            <mxPoint x="630" y="420.5" as="sourcePoint" />
            <mxPoint x="1170" y="420" as="targetPoint" />
          </mxGeometry>
        </mxCell>
        <mxCell id="LMHyC45OCO51PbOUbwfd-141" value="" style="endArrow=classic;html=1;rounded=0;exitX=1;exitY=0.5;exitDx=0;exitDy=0;entryX=0;entryY=0.5;entryDx=0;entryDy=0;" edge="1" parent="1" source="LMHyC45OCO51PbOUbwfd-107" target="LMHyC45OCO51PbOUbwfd-137">
          <mxGeometry width="50" height="50" relative="1" as="geometry">
            <mxPoint x="890" y="353" as="sourcePoint" />
            <mxPoint x="925" y="260" as="targetPoint" />
          </mxGeometry>
        </mxCell>
        <mxCell id="LMHyC45OCO51PbOUbwfd-142" value="" style="endArrow=classic;html=1;rounded=0;entryX=0.5;entryY=0;entryDx=0;entryDy=0;exitX=0.5;exitY=1;exitDx=0;exitDy=0;" edge="1" parent="1" source="LMHyC45OCO51PbOUbwfd-137" target="LMHyC45OCO51PbOUbwfd-114">
          <mxGeometry width="50" height="50" relative="1" as="geometry">
            <mxPoint x="940" y="330" as="sourcePoint" />
            <mxPoint x="1060" y="290" as="targetPoint" />
          </mxGeometry>
        </mxCell>
        <mxCell id="LMHyC45OCO51PbOUbwfd-144" value="" style="endArrow=classic;html=1;rounded=0;entryX=0.5;entryY=1;entryDx=0;entryDy=0;exitX=0.5;exitY=0;exitDx=0;exitDy=0;" edge="1" parent="1" source="LMHyC45OCO51PbOUbwfd-137" target="LMHyC45OCO51PbOUbwfd-134">
          <mxGeometry width="50" height="50" relative="1" as="geometry">
            <mxPoint x="940" y="330" as="sourcePoint" />
            <mxPoint x="940" y="397" as="targetPoint" />
          </mxGeometry>
        </mxCell>
        <mxCell id="LMHyC45OCO51PbOUbwfd-145" value="Â Processes incoming messages in the inbox,Â  asking the chat function." style="text;whiteSpace=wrap;fontSize=8;verticalAlign=middle;" vertex="1" parent="1">
          <mxGeometry x="680" y="740" width="120" height="50" as="geometry" />
        </mxCell>
        <mxCell id="LMHyC45OCO51PbOUbwfd-146" value="_msg_history_to_prompt" style="rounded=0;whiteSpace=wrap;html=1;fillColor=#f8cecc;strokeColor=#b85450;fontSize=10;" vertex="1" parent="1">
          <mxGeometry x="845" y="660" width="130" height="30" as="geometry" />
        </mxCell>
        <mxCell id="LMHyC45OCO51PbOUbwfd-147" value="Converts message history into a prompt for the language model." style="text;whiteSpace=wrap;fontSize=8;verticalAlign=middle;" vertex="1" parent="1">
          <mxGeometry x="845" y="680" width="130" height="50" as="geometry" />
        </mxCell>
        <mxCell id="LMHyC45OCO51PbOUbwfd-149" value="" style="endArrow=classic;html=1;rounded=0;fontSize=10;exitX=1;exitY=0.5;exitDx=0;exitDy=0;entryX=0;entryY=0.5;entryDx=0;entryDy=0;" edge="1" parent="1" source="LMHyC45OCO51PbOUbwfd-132" target="LMHyC45OCO51PbOUbwfd-146">
          <mxGeometry width="50" height="50" relative="1" as="geometry">
            <mxPoint x="815" y="670" as="sourcePoint" />
            <mxPoint x="870" y="730" as="targetPoint" />
          </mxGeometry>
        </mxCell>
        <mxCell id="LMHyC45OCO51PbOUbwfd-150" value="Chart" style="rounded=0;whiteSpace=wrap;html=1;fillColor=#f8cecc;strokeColor=#b85450;fontSize=10;" vertex="1" parent="1">
          <mxGeometry x="1015" y="660" width="130" height="30" as="geometry" />
        </mxCell>
        <mxCell id="LMHyC45OCO51PbOUbwfd-151" value="" style="endArrow=classic;html=1;rounded=0;fontSize=10;exitX=1;exitY=0.5;exitDx=0;exitDy=0;entryX=0;entryY=0.5;entryDx=0;entryDy=0;" edge="1" parent="1" source="LMHyC45OCO51PbOUbwfd-146" target="LMHyC45OCO51PbOUbwfd-150">
          <mxGeometry width="50" height="50" relative="1" as="geometry">
            <mxPoint x="1015" y="620" as="sourcePoint" />
            <mxPoint x="1055" y="640" as="targetPoint" />
          </mxGeometry>
        </mxCell>
        <mxCell id="LMHyC45OCO51PbOUbwfd-152" value="Sends a chat message to the language model and processes the response." style="text;whiteSpace=wrap;fontSize=8;verticalAlign=middle;" vertex="1" parent="1">
          <mxGeometry x="1015" y="680" width="130" height="50" as="geometry" />
        </mxCell>
        <mxCell id="LMHyC45OCO51PbOUbwfd-153" value="__get_function_call_response" style="rounded=0;whiteSpace=wrap;html=1;fillColor=#f8cecc;strokeColor=#b85450;fontSize=10;" vertex="1" parent="1">
          <mxGeometry x="1195" y="660" width="150" height="30" as="geometry" />
        </mxCell>
        <mxCell id="LMHyC45OCO51PbOUbwfd-154" value="" style="endArrow=classic;html=1;rounded=0;fontSize=10;exitX=1;exitY=0.5;exitDx=0;exitDy=0;entryX=0;entryY=0.5;entryDx=0;entryDy=0;" edge="1" parent="1" source="LMHyC45OCO51PbOUbwfd-150" target="LMHyC45OCO51PbOUbwfd-153">
          <mxGeometry width="50" height="50" relative="1" as="geometry">
            <mxPoint x="1165" y="610" as="sourcePoint" />
            <mxPoint x="1205" y="610" as="targetPoint" />
          </mxGeometry>
        </mxCell>
        <mxCell id="LMHyC45OCO51PbOUbwfd-155" value="Requests a response from OpenAI API with optional function call." style="text;whiteSpace=wrap;fontSize=8;verticalAlign=middle;" vertex="1" parent="1">
          <mxGeometry x="1190" y="680" width="160" height="50" as="geometry" />
        </mxCell>
        <mxCell id="LMHyC45OCO51PbOUbwfd-156" value="chat_after_function_execution" style="rounded=0;whiteSpace=wrap;html=1;fillColor=#f8cecc;strokeColor=#b85450;fontSize=10;" vertex="1" parent="1">
          <mxGeometry x="845" y="780" width="140" height="30" as="geometry" />
        </mxCell>
        <mxCell id="LMHyC45OCO51PbOUbwfd-157" value="" style="endArrow=classic;html=1;rounded=0;fontSize=10;exitX=1;exitY=0.5;exitDx=0;exitDy=0;entryX=0;entryY=0.5;entryDx=0;entryDy=0;" edge="1" parent="1" source="LMHyC45OCO51PbOUbwfd-132" target="LMHyC45OCO51PbOUbwfd-156">
          <mxGeometry width="50" height="50" relative="1" as="geometry">
            <mxPoint x="1115" y="850" as="sourcePoint" />
            <mxPoint x="1165" y="790" as="targetPoint" />
          </mxGeometry>
        </mxCell>
        <mxCell id="LMHyC45OCO51PbOUbwfd-158" value="" style="endArrow=classic;html=1;rounded=0;fontSize=10;exitX=0.5;exitY=1;exitDx=0;exitDy=0;entryX=0.5;entryY=0;entryDx=0;entryDy=0;" edge="1" parent="1" source="LMHyC45OCO51PbOUbwfd-153" target="LMHyC45OCO51PbOUbwfd-156">
          <mxGeometry width="50" height="50" relative="1" as="geometry">
            <mxPoint x="1135" y="850" as="sourcePoint" />
            <mxPoint x="1185" y="790" as="targetPoint" />
          </mxGeometry>
        </mxCell>
        <mxCell id="LMHyC45OCO51PbOUbwfd-160" value="" style="endArrow=classic;html=1;rounded=0;fontSize=10;entryX=0.324;entryY=0.003;entryDx=0;entryDy=0;exitX=0.5;exitY=1;exitDx=0;exitDy=0;entryPerimeter=0;" edge="1" parent="1" source="LMHyC45OCO51PbOUbwfd-114" target="LMHyC45OCO51PbOUbwfd-132">
          <mxGeometry width="50" height="50" relative="1" as="geometry">
            <mxPoint x="960" y="350" as="sourcePoint" />
            <mxPoint x="1165.0000000000002" y="510" as="targetPoint" />
          </mxGeometry>
        </mxCell>
        <mxCell id="LMHyC45OCO51PbOUbwfd-161" value="" style="endArrow=classic;html=1;rounded=0;fontSize=10;exitX=1;exitY=0.5;exitDx=0;exitDy=0;entryX=0;entryY=0.5;entryDx=0;entryDy=0;" edge="1" parent="1" source="LMHyC45OCO51PbOUbwfd-156" target="LMHyC45OCO51PbOUbwfd-166">
          <mxGeometry width="50" height="50" relative="1" as="geometry">
            <mxPoint x="1540" y="790" as="sourcePoint" />
            <mxPoint x="1065" y="760" as="targetPoint" />
          </mxGeometry>
        </mxCell>
        <mxCell id="LMHyC45OCO51PbOUbwfd-163" value="setup_message_functions" style="rounded=0;whiteSpace=wrap;html=1;fillColor=#f8cecc;strokeColor=#b85450;fontSize=10;" vertex="1" parent="1">
          <mxGeometry x="685" y="520" width="130" height="30" as="geometry" />
        </mxCell>
        <mxCell id="LMHyC45OCO51PbOUbwfd-165" value="Sets up messaging functions for communication with peer agents." style="text;whiteSpace=wrap;fontSize=8;verticalAlign=middle;" vertex="1" parent="1">
          <mxGeometry x="685" y="535" width="120" height="50" as="geometry" />
        </mxCell>
        <mxCell id="LMHyC45OCO51PbOUbwfd-166" value="__get_direct_response" style="rounded=0;whiteSpace=wrap;html=1;fillColor=#f8cecc;strokeColor=#b85450;fontSize=10;" vertex="1" parent="1">
          <mxGeometry x="1080" y="750" width="140" height="30" as="geometry" />
        </mxCell>
        <mxCell id="LMHyC45OCO51PbOUbwfd-167" value="Process the results and decided what to do" style="text;whiteSpace=wrap;fontSize=8;verticalAlign=middle;" vertex="1" parent="1">
          <mxGeometry x="835" y="790" width="160" height="50" as="geometry" />
        </mxCell>
        <mxCell id="LMHyC45OCO51PbOUbwfd-168" value="&lt;span style=&quot;font-size: 10px;&quot;&gt;message_executables&lt;/span&gt;" style="rounded=0;whiteSpace=wrap;html=1;fillColor=#e1d5e7;strokeColor=#9673a6;" vertex="1" parent="1">
          <mxGeometry x="905" y="520" width="110" height="30" as="geometry" />
        </mxCell>
        <mxCell id="LMHyC45OCO51PbOUbwfd-169" value="" style="endArrow=classic;html=1;rounded=0;entryX=0;entryY=0.5;entryDx=0;entryDy=0;exitX=1;exitY=0.5;exitDx=0;exitDy=0;" edge="1" parent="1" source="LMHyC45OCO51PbOUbwfd-163" target="LMHyC45OCO51PbOUbwfd-168">
          <mxGeometry width="50" height="50" relative="1" as="geometry">
            <mxPoint x="895" y="400" as="sourcePoint" />
            <mxPoint x="895" y="467" as="targetPoint" />
          </mxGeometry>
        </mxCell>
        <mxCell id="LMHyC45OCO51PbOUbwfd-170" value="stores message handler functions for peer agents or users.Â " style="text;whiteSpace=wrap;fontSize=8;verticalAlign=middle;" vertex="1" parent="1">
          <mxGeometry x="900" y="535" width="125" height="50" as="geometry" />
        </mxCell>
        <mxCell id="LMHyC45OCO51PbOUbwfd-171" value="Send the direct message to user" style="text;whiteSpace=wrap;fontSize=8;verticalAlign=middle;" vertex="1" parent="1">
          <mxGeometry x="1095" y="760" width="120" height="50" as="geometry" />
        </mxCell>
        <mxCell id="LMHyC45OCO51PbOUbwfd-172" value="" style="endArrow=classic;html=1;rounded=0;fontSize=10;exitX=1;exitY=0.5;exitDx=0;exitDy=0;entryX=0;entryY=0.5;entryDx=0;entryDy=0;" edge="1" parent="1" source="LMHyC45OCO51PbOUbwfd-156" target="LMHyC45OCO51PbOUbwfd-174">
          <mxGeometry width="50" height="50" relative="1" as="geometry">
            <mxPoint x="1015" y="790" as="sourcePoint" />
            <mxPoint x="1085" y="850" as="targetPoint" />
          </mxGeometry>
        </mxCell>
        <mxCell id="LMHyC45OCO51PbOUbwfd-174" value="__get_message_response" style="rounded=0;whiteSpace=wrap;html=1;fillColor=#f8cecc;strokeColor=#b85450;fontSize=10;" vertex="1" parent="1">
          <mxGeometry x="1080" y="830" width="140" height="30" as="geometry" />
        </mxCell>
        <mxCell id="LMHyC45OCO51PbOUbwfd-176" value="Get response from LLM again" style="text;whiteSpace=wrap;fontSize=8;verticalAlign=middle;" vertex="1" parent="1">
          <mxGeometry x="1095" y="840" width="120" height="50" as="geometry" />
        </mxCell>
        <mxCell id="LMHyC45OCO51PbOUbwfd-177" value="" style="endArrow=none;dashed=1;html=1;rounded=0;strokeWidth=2;" edge="1" parent="1">
          <mxGeometry width="50" height="50" relative="1" as="geometry">
            <mxPoint x="480" y="880.5" as="sourcePoint" />
            <mxPoint x="1360" y="880" as="targetPoint" />
          </mxGeometry>
        </mxCell>
        <mxCell id="LMHyC45OCO51PbOUbwfd-178" value="" style="endArrow=none;dashed=1;html=1;rounded=0;strokeWidth=2;" edge="1" parent="1">
          <mxGeometry width="50" height="50" relative="1" as="geometry">
            <mxPoint x="480" y="510.5" as="sourcePoint" />
            <mxPoint x="1360" y="510" as="targetPoint" />
          </mxGeometry>
        </mxCell>
        <mxCell id="LMHyC45OCO51PbOUbwfd-179" value="" style="endArrow=none;dashed=1;html=1;rounded=0;strokeWidth=2;" edge="1" parent="1">
          <mxGeometry width="50" height="50" relative="1" as="geometry">
            <mxPoint x="1360" y="510" as="sourcePoint" />
            <mxPoint x="1360" y="880" as="targetPoint" />
          </mxGeometry>
        </mxCell>
        <mxCell id="LMHyC45OCO51PbOUbwfd-180" value="" style="endArrow=none;dashed=1;html=1;rounded=0;strokeWidth=2;" edge="1" parent="1">
          <mxGeometry width="50" height="50" relative="1" as="geometry">
            <mxPoint x="478.82000000000005" y="510" as="sourcePoint" />
            <mxPoint x="478.82000000000005" y="880" as="targetPoint" />
          </mxGeometry>
        </mxCell>
        <mxCell id="LMHyC45OCO51PbOUbwfd-181" value="&lt;b&gt;&lt;font style=&quot;color: rgb(255, 0, 0);&quot;&gt;This block presents the robot agent, process the command from the user agent and execute the robot movement&lt;/font&gt;&lt;/b&gt;" style="text;strokeColor=none;align=center;fillColor=none;html=1;verticalAlign=middle;whiteSpace=wrap;rounded=0;" vertex="1" parent="1">
          <mxGeometry x="735" y="880" width="360" height="30" as="geometry" />
        </mxCell>
        <mxCell id="LMHyC45OCO51PbOUbwfd-182" value="&lt;font color=&quot;#000000&quot;&gt;RoboticArmAssembly&lt;/font&gt;" style="html=1;whiteSpace=wrap;fillColor=#60a917;strokeColor=#2D7600;fontSize=10;fontColor=#ffffff;" vertex="1" parent="1">
          <mxGeometry x="520" y="1570" width="140" height="30" as="geometry" />
        </mxCell>
        <mxCell id="LMHyC45OCO51PbOUbwfd-183" value="Exact and storage the capability of robotÂ " style="text;whiteSpace=wrap;fontSize=8;verticalAlign=middle;" vertex="1" parent="1">
          <mxGeometry x="405" y="1500" width="150" height="40" as="geometry" />
        </mxCell>
        <mxCell id="LMHyC45OCO51PbOUbwfd-184" value="" style="endArrow=classic;html=1;rounded=0;fontSize=10;exitX=1;exitY=0.5;exitDx=0;exitDy=0;entryX=0;entryY=0.5;entryDx=0;entryDy=0;" edge="1" parent="1" source="LMHyC45OCO51PbOUbwfd-37" target="LMHyC45OCO51PbOUbwfd-182">
          <mxGeometry width="50" height="50" relative="1" as="geometry">
            <mxPoint x="785" y="1490" as="sourcePoint" />
            <mxPoint x="845" y="1640" as="targetPoint" />
          </mxGeometry>
        </mxCell>
        <mxCell id="LMHyC45OCO51PbOUbwfd-186" value="&lt;font color=&quot;#000000&quot;&gt;RAGHandler&lt;/font&gt;" style="html=1;whiteSpace=wrap;fillColor=#60a917;strokeColor=#2D7600;fontSize=10;fontColor=#ffffff;" vertex="1" parent="1">
          <mxGeometry x="520" y="1370" width="140" height="30" as="geometry" />
        </mxCell>
        <mxCell id="LMHyC45OCO51PbOUbwfd-187" value="" style="endArrow=classic;html=1;rounded=0;fontSize=10;exitX=1;exitY=0.5;exitDx=0;exitDy=0;entryX=0;entryY=0.5;entryDx=0;entryDy=0;" edge="1" parent="1" source="LMHyC45OCO51PbOUbwfd-37" target="LMHyC45OCO51PbOUbwfd-186">
          <mxGeometry width="50" height="50" relative="1" as="geometry">
            <mxPoint x="635" y="1510" as="sourcePoint" />
            <mxPoint x="740" y="1630" as="targetPoint" />
          </mxGeometry>
        </mxCell>
        <mxCell id="LMHyC45OCO51PbOUbwfd-189" value="Pass information to the robot agent" style="text;whiteSpace=wrap;fontSize=8;verticalAlign=middle;" vertex="1" parent="1">
          <mxGeometry x="282.5" y="1300" width="85" height="40" as="geometry" />
        </mxCell>
        <mxCell id="LMHyC45OCO51PbOUbwfd-190" value="Process theÂ SOP file" style="text;whiteSpace=wrap;fontSize=8;verticalAlign=middle;" vertex="1" parent="1">
          <mxGeometry x="545" y="1390" width="90" height="40" as="geometry" />
        </mxCell>
        <mxCell id="LMHyC45OCO51PbOUbwfd-191" value="&lt;font color=&quot;#000000&quot;&gt;FunctionAnalyzer&lt;/font&gt;" style="html=1;whiteSpace=wrap;fillColor=#60a917;strokeColor=#2D7600;fontSize=10;fontColor=#ffffff;" vertex="1" parent="1">
          <mxGeometry x="725" y="1450" width="140" height="30" as="geometry" />
        </mxCell>
        <mxCell id="LMHyC45OCO51PbOUbwfd-192" value="Analysis of Python functions and entire classes using introspection for creating descriptions usable with the OpenAI API" style="text;whiteSpace=wrap;fontSize=8;verticalAlign=middle;" vertex="1" parent="1">
          <mxGeometry x="720" y="1475" width="160" height="40" as="geometry" />
        </mxCell>
        <mxCell id="LMHyC45OCO51PbOUbwfd-194" value="" style="endArrow=classic;html=1;rounded=0;fontSize=10;exitX=1;exitY=0.5;exitDx=0;exitDy=0;entryX=0;entryY=0.5;entryDx=0;entryDy=0;" edge="1" parent="1" source="LMHyC45OCO51PbOUbwfd-186" target="LMHyC45OCO51PbOUbwfd-191">
          <mxGeometry width="50" height="50" relative="1" as="geometry">
            <mxPoint x="775" y="1470" as="sourcePoint" />
            <mxPoint x="880" y="1390" as="targetPoint" />
          </mxGeometry>
        </mxCell>
        <mxCell id="LMHyC45OCO51PbOUbwfd-195" value="" style="endArrow=classic;html=1;rounded=0;fontSize=10;exitX=1;exitY=0.5;exitDx=0;exitDy=0;entryX=0;entryY=0.5;entryDx=0;entryDy=0;" edge="1" parent="1" source="LMHyC45OCO51PbOUbwfd-182" target="LMHyC45OCO51PbOUbwfd-191">
          <mxGeometry width="50" height="50" relative="1" as="geometry">
            <mxPoint x="785" y="1400" as="sourcePoint" />
            <mxPoint x="855" y="1490" as="targetPoint" />
          </mxGeometry>
        </mxCell>
        <mxCell id="LMHyC45OCO51PbOUbwfd-196" value="" style="endArrow=none;dashed=1;html=1;rounded=0;strokeWidth=2;" edge="1" parent="1">
          <mxGeometry width="50" height="50" relative="1" as="geometry">
            <mxPoint x="215" y="1640" as="sourcePoint" />
            <mxPoint x="935" y="1640" as="targetPoint" />
          </mxGeometry>
        </mxCell>
        <mxCell id="LMHyC45OCO51PbOUbwfd-197" value="" style="endArrow=none;dashed=1;html=1;rounded=0;strokeWidth=2;" edge="1" parent="1">
          <mxGeometry width="50" height="50" relative="1" as="geometry">
            <mxPoint x="215" y="1290" as="sourcePoint" />
            <mxPoint x="935" y="1290" as="targetPoint" />
          </mxGeometry>
        </mxCell>
        <mxCell id="LMHyC45OCO51PbOUbwfd-198" value="" style="endArrow=none;dashed=1;html=1;rounded=0;strokeWidth=2;" edge="1" parent="1">
          <mxGeometry width="50" height="50" relative="1" as="geometry">
            <mxPoint x="935" y="1290" as="sourcePoint" />
            <mxPoint x="935" y="1640" as="targetPoint" />
          </mxGeometry>
        </mxCell>
        <mxCell id="LMHyC45OCO51PbOUbwfd-199" value="" style="endArrow=none;dashed=1;html=1;rounded=0;strokeWidth=2;" edge="1" parent="1">
          <mxGeometry width="50" height="50" relative="1" as="geometry">
            <mxPoint x="215" y="1290" as="sourcePoint" />
            <mxPoint x="215" y="1640" as="targetPoint" />
          </mxGeometry>
        </mxCell>
        <mxCell id="LMHyC45OCO51PbOUbwfd-200" value="&lt;b&gt;&lt;font style=&quot;color: rgb(255, 0, 0);&quot;&gt;This block initialize the capability of the robot agent&lt;/font&gt;&lt;/b&gt;" style="text;strokeColor=none;align=center;fillColor=none;html=1;verticalAlign=middle;whiteSpace=wrap;rounded=0;" vertex="1" parent="1">
          <mxGeometry x="405" y="1640" width="320" height="30" as="geometry" />
        </mxCell>
        <mxCell id="LMHyC45OCO51PbOUbwfd-201" value="" style="endArrow=none;dashed=1;html=1;rounded=0;strokeWidth=2;" edge="1" parent="1">
          <mxGeometry width="50" height="50" relative="1" as="geometry">
            <mxPoint x="1750" y="1280" as="sourcePoint" />
            <mxPoint x="1750" y="2070" as="targetPoint" />
          </mxGeometry>
        </mxCell>
        <mxCell id="LMHyC45OCO51PbOUbwfd-202" value="" style="endArrow=none;dashed=1;html=1;rounded=0;strokeWidth=2;" edge="1" parent="1">
          <mxGeometry width="50" height="50" relative="1" as="geometry">
            <mxPoint x="960" y="1280" as="sourcePoint" />
            <mxPoint x="960" y="2070" as="targetPoint" />
          </mxGeometry>
        </mxCell>
        <mxCell id="LMHyC45OCO51PbOUbwfd-203" value="" style="endArrow=none;dashed=1;html=1;rounded=0;strokeWidth=2;" edge="1" parent="1">
          <mxGeometry width="50" height="50" relative="1" as="geometry">
            <mxPoint x="960" y="2070" as="sourcePoint" />
            <mxPoint x="1750" y="2070" as="targetPoint" />
          </mxGeometry>
        </mxCell>
        <mxCell id="LMHyC45OCO51PbOUbwfd-204" value="" style="endArrow=none;dashed=1;html=1;rounded=0;strokeWidth=2;" edge="1" parent="1">
          <mxGeometry width="50" height="50" relative="1" as="geometry">
            <mxPoint x="960" y="1280" as="sourcePoint" />
            <mxPoint x="1750" y="1280" as="targetPoint" />
          </mxGeometry>
        </mxCell>
        <mxCell id="LMHyC45OCO51PbOUbwfd-205" value="&lt;b&gt;&lt;font style=&quot;color: rgb(255, 0, 0);&quot;&gt;This block explains how robot detect object and perform assembly&lt;/font&gt;&lt;/b&gt;" style="text;strokeColor=none;align=center;fillColor=none;html=1;verticalAlign=middle;whiteSpace=wrap;rounded=0;" vertex="1" parent="1">
          <mxGeometry x="1195" y="2070" width="320" height="30" as="geometry" />
        </mxCell>
        <mxCell id="LMHyC45OCO51PbOUbwfd-206" value="" style="endArrow=classic;html=1;rounded=0;fontSize=10;exitX=1;exitY=0.5;exitDx=0;exitDy=0;entryX=0;entryY=0.5;entryDx=0;entryDy=0;" edge="1" parent="1" source="LMHyC45OCO51PbOUbwfd-182" target="evL0q8HehRQx2sm4fGle-46">
          <mxGeometry width="50" height="50" relative="1" as="geometry">
            <mxPoint x="770" y="1710" as="sourcePoint" />
            <mxPoint x="875" y="1830" as="targetPoint" />
          </mxGeometry>
        </mxCell>
        <mxCell id="LMHyC45OCO51PbOUbwfd-207" value="" style="endArrow=classic;html=1;rounded=0;fontSize=10;exitX=1;exitY=0.5;exitDx=0;exitDy=0;entryX=0;entryY=0.5;entryDx=0;entryDy=0;" edge="1" parent="1" source="LMHyC45OCO51PbOUbwfd-153" target="LMHyC45OCO51PbOUbwfd-208">
          <mxGeometry width="50" height="50" relative="1" as="geometry">
            <mxPoint x="1865" y="680" as="sourcePoint" />
            <mxPoint x="1490" y="675" as="targetPoint" />
          </mxGeometry>
        </mxCell>
        <mxCell id="LMHyC45OCO51PbOUbwfd-208" value="Execute robot assembly" style="rounded=0;whiteSpace=wrap;html=1;fontSize=10;" vertex="1" parent="1">
          <mxGeometry x="1500" y="660" width="150" height="30" as="geometry" />
        </mxCell>
      </root>
    </mxGraphModel>
  </diagram>
</mxfile>
